<svg width="195" height="208" viewBox="0 0 195 208" fill="none" xmlns="http://www.w3.org/2000/svg">
<g clip-path="url(#clip0_159_10630)">
<g clip-path="url(#clip1_159_10630)">
<path d="M55.0324 108.416C55.0233 108.854 54.8811 109.279 54.6247 109.634C54.3684 109.989 54.0099 110.258 53.5971 110.405C53.2204 110.552 52.8304 110.663 52.4325 110.735C51.9933 110.934 51.4992 110.976 51.0325 110.855C50.9232 110.811 50.8237 110.746 50.7396 110.664C50.6555 110.581 50.5885 110.483 50.5425 110.375C50.4965 110.266 50.4724 110.15 50.4714 110.032C50.4705 109.914 50.4929 109.797 50.5372 109.688C50.5611 109.622 50.595 109.56 50.6378 109.505C51.058 108.944 51.7878 108.897 52.4077 108.701C52.6359 108.627 52.8499 108.514 53.0407 108.369C53.2425 108.133 53.4837 107.934 53.7536 107.781C54.234 107.6 54.966 107.816 54.99 108.426L55.0324 108.416Z" fill="#FF71A8"/>
<path d="M60.692 118.343C60.8876 120.109 58.7664 121.189 57.3646 121.613C57.0396 121.675 56.7033 121.613 56.4212 121.44C56.1391 121.268 55.9314 120.996 55.8385 120.679C55.739 120.363 55.7569 120.022 55.889 119.719C56.0211 119.415 56.2585 119.17 56.5573 119.028C57.4008 118.689 58.1964 118.241 58.9239 117.695C59.0379 117.605 59.1686 117.537 59.3086 117.497C59.4485 117.457 59.595 117.445 59.7397 117.462C59.8843 117.478 60.0243 117.523 60.1516 117.594C60.2789 117.664 60.3911 117.759 60.4817 117.873C60.5886 118.01 60.6607 118.171 60.692 118.343Z" fill="#FF71A8"/>
<path d="M81.0431 148.026C81.3133 147.804 81.2833 147.828 80.9381 148.113L80.7959 148.154C80.7093 148.215 80.6112 148.257 80.5077 148.278C80.2993 148.362 80.1019 148.474 79.9059 148.573C79.65 148.694 79.3659 148.744 79.0839 148.717C78.8018 148.69 78.5325 148.586 78.3045 148.418C78.0972 148.243 77.9234 148.032 77.7913 147.795C77.6418 147.49 77.6045 147.141 77.686 146.811C77.7561 146.462 77.9342 146.143 78.1952 145.9C78.5901 145.565 79.0851 145.369 79.6027 145.345C79.9618 145.304 80.3256 145.339 80.6703 145.448L80.8482 145.465L81.1896 145.65C81.5249 145.945 81.5558 145.983 81.2823 145.763C81.4715 145.901 81.6223 146.085 81.7203 146.297C81.8182 146.51 81.8602 146.744 81.842 146.977C81.8113 147.206 81.7215 147.424 81.5814 147.608C81.4414 147.791 81.2559 147.936 81.0431 148.026Z" fill="#FF71A8"/>
<path d="M93.2715 151.583C92.6726 152.548 91.8318 153.341 90.8323 153.882C90.481 154.182 90.146 154.5 89.8286 154.835C89.5028 155.139 89.0797 155.317 88.6348 155.337C88.1899 155.357 87.7523 155.219 87.4002 154.946C87.0707 154.698 86.8531 154.329 86.7954 153.921C86.7377 153.513 86.8445 153.098 87.0924 152.768C87.162 152.677 87.2395 152.592 87.3241 152.514C87.4654 152.424 87.6117 152.341 87.7625 152.267C87.7625 152.267 88.0705 151.937 88.1619 151.849C88.4653 151.578 88.7939 151.337 89.1432 151.129C89.7754 150.734 90.3656 150.273 90.9814 149.904C91.237 149.705 91.5488 149.592 91.8724 149.582C92.196 149.571 92.5148 149.662 92.7832 149.843C93.0442 150.034 93.2359 150.304 93.3294 150.614C93.4229 150.923 93.4132 151.255 93.3016 151.558L93.2715 151.583Z" fill="#FF71A8"/>
<path d="M109.347 166.521C107.268 166.23 105.323 164.696 103.667 163.465C103.41 163.244 103.246 162.935 103.207 162.599C103.168 162.262 103.256 161.924 103.454 161.649C103.653 161.375 103.947 161.185 104.278 161.117C104.61 161.049 104.955 161.108 105.245 161.283C106.066 161.866 106.887 162.45 107.694 162.894C108.555 163.331 109.37 163.854 110.127 164.455C110.881 165.156 110.602 166.683 109.347 166.521Z" fill="#FF71A8"/>
<path d="M56.9214 137.727C55.8932 139.208 54.6818 140.554 53.3161 141.731C52.1204 142.955 50.9274 144.581 49.4521 145.482C49.1819 145.704 48.9155 145.243 49.0563 145.001C49.931 143.525 51.5674 142.315 52.7795 141.064C53.9137 139.687 55.2205 138.462 56.6679 137.419C56.859 137.3 57.0132 137.563 56.9214 137.727Z" fill="#AF73EA"/>
<path d="M56.8291 137.753C55.5888 139.153 53.9988 140.312 52.6247 141.595C51.9175 142.266 51.229 142.959 50.5404 143.653C49.9616 144.382 49.2929 145.034 48.5501 145.595C48.5056 145.616 48.4574 145.627 48.4084 145.629C48.3593 145.631 48.3104 145.623 48.2645 145.606C48.2186 145.588 48.1766 145.562 48.1409 145.528C48.1053 145.495 48.0767 145.454 48.0568 145.409C48.0356 145.366 48.0233 145.32 48.0208 145.272C48.0182 145.224 48.0255 145.176 48.0422 145.132C48.4692 144.396 49.0185 143.739 49.6665 143.188C50.3877 142.443 51.1138 141.719 51.8324 141.001C53.1839 139.59 54.7142 138.363 56.3844 137.351C56.4429 137.324 56.5087 137.317 56.5714 137.331C56.6341 137.346 56.6903 137.381 56.7312 137.43C56.7722 137.48 56.7955 137.542 56.7976 137.606C56.7998 137.67 56.7806 137.734 56.7431 137.786L56.8291 137.753Z" fill="#AF73EA"/>
<path d="M57.414 138.279C56.3631 139.649 55.1435 140.906 53.9774 142.181C53.4587 142.76 52.6422 143.849 51.8005 143.194C51.7509 143.169 51.7082 143.132 51.6762 143.086C51.6442 143.041 51.6238 142.988 51.6168 142.933C51.6099 142.878 51.6166 142.822 51.6364 142.77C51.6561 142.718 51.6883 142.671 51.7302 142.635C51.7591 142.586 51.8042 142.549 51.8577 142.53C52.811 142.039 53.6478 141.349 54.3116 140.508C55.1719 139.61 56.011 138.717 56.9397 137.826C57.0149 137.776 57.1063 137.758 57.1947 137.774C57.2832 137.79 57.362 137.84 57.4148 137.913C57.4543 137.965 57.4768 138.029 57.4791 138.094C57.4814 138.16 57.4634 138.225 57.4277 138.28L57.414 138.279Z" fill="#AF73EA"/>
<path d="M57.0391 138.512C58.0346 138.819 59.0505 139.055 60.0791 139.22C60.208 139.232 60.3266 139.296 60.409 139.395C60.4913 139.495 60.5305 139.624 60.5181 139.753C60.5057 139.882 60.4426 140 60.3426 140.083C60.2427 140.165 60.1142 140.204 59.9853 140.192C59.3146 140.127 58.6598 140.112 57.9764 140.108C57.2929 140.105 57.5081 139.234 58.0622 139.219C58.7632 139.198 59.4583 139.353 60.0841 139.669L59.7695 140.496L56.2276 138.689L56.6243 137.871C57.6307 138.68 58.6672 139.464 59.6586 140.285C59.7079 140.319 59.7496 140.364 59.7814 140.415C59.8131 140.466 59.8341 140.523 59.8432 140.583C59.8523 140.642 59.8493 140.703 59.8343 140.762C59.8193 140.82 59.7926 140.875 59.7559 140.923C59.7339 140.947 59.7086 140.967 59.6809 140.984C59.3584 141.224 58.9898 141.395 58.5983 141.485C58.2069 141.576 57.8009 141.584 57.4059 141.511C57.2914 141.496 57.187 141.438 57.1136 141.348C57.0402 141.259 57.0032 141.146 57.0101 141.031C57.0165 140.975 57.0338 140.922 57.061 140.874C57.0882 140.825 57.1248 140.783 57.1686 140.749L58.3467 139.778C58.4318 139.71 58.5386 139.674 58.6477 139.677C58.7569 139.681 58.8612 139.723 58.9417 139.797C59.0223 139.871 59.0738 139.971 59.0869 140.079C59.1 140.188 59.0738 140.297 59.0131 140.388C57.7897 142.114 55.4637 141.738 54.0503 143.142L53.432 142.391C54.6434 141.473 55.9466 140.682 57.3207 140.031L57.5788 140.864C56.2212 141.202 54.8861 141.624 53.5816 142.129C53.4963 142.131 53.4126 142.107 53.3402 142.062C53.2678 142.017 53.2097 141.953 53.1728 141.876C53.136 141.799 53.1219 141.713 53.1321 141.628C53.1424 141.544 53.1766 141.464 53.2308 141.398C54.3764 140.908 55.3975 140.419 56.4288 139.897C56.8994 139.673 57.3548 140.394 56.9571 140.721C55.3078 141.778 53.6957 142.88 52.0032 143.884C51.571 144.139 51.0697 143.393 51.5182 143.112C52.307 142.601 53.1689 142.214 54.0743 141.963C54.623 141.788 55.1767 141.634 55.7069 141.437C55.9464 141.34 56.1773 141.238 56.3995 141.13L56.8092 140.894C57.2586 140.675 57.1213 140.523 56.4258 140.428L56.1457 139.538L57.2636 139.335L57.1826 140.246C55.7744 139.806 54.7973 141.128 53.9533 142C53.1544 142.809 52.2742 143.534 51.3268 144.164L50.9566 143.347C52.1387 143.05 53.2694 142.577 54.3109 141.944C54.853 141.624 55.2365 142.517 54.7416 142.849C53.6104 143.502 52.3884 143.982 51.1158 144.275C51.0575 144.287 50.9973 144.287 50.9388 144.276C50.8802 144.265 50.8245 144.242 50.775 144.209C50.7254 144.176 50.6829 144.133 50.6501 144.083C50.6172 144.034 50.5947 143.978 50.5837 143.919C50.5653 143.836 50.5714 143.748 50.6012 143.668C50.631 143.587 50.6833 143.517 50.7518 143.466C52.0156 142.51 53.2104 141.467 54.3273 140.343C54.7276 139.91 55.2376 139.593 55.8034 139.427C56.3692 139.26 56.9696 139.249 57.5409 139.396C57.5991 139.419 57.6521 139.454 57.6968 139.497C57.7415 139.541 57.7769 139.593 57.801 139.651C57.825 139.709 57.8372 139.771 57.8369 139.833C57.8365 139.896 57.8236 139.958 57.7989 140.015C57.7705 140.088 57.7239 140.153 57.6634 140.203C57.603 140.252 57.5308 140.286 57.4537 140.3L56.2612 140.489C55.7565 140.564 55.4596 139.776 55.9885 139.592C56.5174 139.408 57.4026 139.183 57.926 139.772C58.0217 139.88 58.0953 140.006 58.1424 140.142C58.1895 140.279 58.2092 140.423 58.2004 140.568C58.1916 140.712 58.1545 140.853 58.0912 140.982C58.0279 141.112 57.9396 141.228 57.8314 141.324L57.7639 141.38C56.2406 142.849 53.7234 142.592 52.1206 143.812L51.5394 143.107C53.133 141.983 54.7456 141.019 56.3436 139.992L56.8719 140.817C55.7912 141.279 54.7215 141.77 53.6271 142.231L53.2308 141.398C54.6154 140.848 56.037 140.397 57.4849 140.047C57.5876 140.034 57.6917 140.057 57.7788 140.113C57.8658 140.169 57.9302 140.254 57.9604 140.353C57.9906 140.452 57.9848 140.559 57.9438 140.654C57.9029 140.749 57.8295 140.827 57.7368 140.873C56.4293 141.489 55.2069 142.272 54.0998 143.202C54.0003 143.284 53.8722 143.323 53.7439 143.311C53.6156 143.298 53.4974 143.235 53.4154 143.136C53.3334 143.036 53.2943 142.908 53.3067 142.78C53.3191 142.652 53.3819 142.533 53.4814 142.451C54.871 141.08 57.1846 141.441 58.2951 139.884L58.954 140.5L57.7833 141.464L57.5474 140.689C57.8237 140.751 58.1102 140.751 58.3869 140.691C58.6636 140.63 58.9237 140.51 59.1491 140.339L59.1625 141.059C58.1548 140.264 57.151 139.428 56.1371 138.625C55.7652 138.327 56.0803 137.639 56.5572 137.851L60.0929 139.65C60.5932 139.905 60.2985 140.74 59.7845 140.483C59.223 140.168 58.5855 140.013 57.9419 140.036L58.0278 139.146L60.0332 139.195L59.9469 140.16C59.1049 140.01 55.408 139.881 56.2054 138.204C56.4309 137.728 57.1987 138.003 56.998 138.508L57.0391 138.512Z" fill="#AF73EA"/>
<path d="M135.069 72.8443C136.023 73.1297 136.921 73.4098 137.829 73.7323C137.884 73.7518 137.934 73.7819 137.977 73.8209C138.02 73.8599 138.054 73.9069 138.079 73.9594C138.103 74.0119 138.117 74.0687 138.12 74.1266C138.122 74.1845 138.113 74.2422 138.093 74.2965C138.066 74.3685 138.02 74.4321 137.961 74.4809C137.902 74.5297 137.831 74.5621 137.755 74.5748C136.693 74.8882 135.556 74.8296 134.531 74.4087C134.446 74.3725 134.375 74.3103 134.328 74.2312C134.28 74.152 134.259 74.0598 134.267 73.9678C134.275 73.8759 134.312 73.7888 134.373 73.7192C134.433 73.6495 134.515 73.6008 134.604 73.58C135.782 73.3722 136.995 73.6356 137.981 74.3133C138.075 74.3871 138.137 74.4953 138.153 74.6145C138.169 74.7337 138.137 74.8542 138.064 74.95C138.017 75.0115 137.956 75.0603 137.885 75.0921C137.814 75.1239 137.737 75.1376 137.66 75.132C136.209 74.9703 134.789 74.6053 133.44 74.0479C133.387 74.0207 133.34 73.9832 133.301 73.9374C133.263 73.8917 133.234 73.8388 133.216 73.7817C133.199 73.7246 133.193 73.6646 133.198 73.6051C133.204 73.5457 133.222 73.488 133.251 73.4355C133.298 73.3433 133.376 73.2697 133.47 73.2263C133.564 73.1828 133.67 73.1721 133.771 73.1956C135.38 73.5899 136.951 74.1253 138.466 74.7953L138.124 75.6948L133.659 73.6407C133.818 73.359 133.969 73.0834 134.113 72.8004C135.243 73.5256 136.429 74.1576 137.661 74.69L137.214 75.5242C136.344 74.7425 135.318 74.1539 134.204 73.7969C133.88 73.7104 133.41 73.7203 133.143 73.4113C132.868 73.0027 132.66 72.5538 132.525 72.0807L133.43 71.65C133.909 72.8245 134.065 74.1062 133.88 75.3613C133.868 75.4669 133.821 75.5657 133.748 75.6425C133.674 75.7193 133.578 75.7698 133.472 75.7863C133.367 75.8028 133.26 75.7844 133.166 75.7339C133.073 75.6834 132.998 75.6036 132.954 75.5068C132.448 74.2058 132.165 72.8287 132.118 71.4335C132.109 70.9492 132.868 70.8152 133.045 71.2743C133.584 72.5549 133.93 73.9081 134.073 75.2901C134.085 75.3529 134.083 75.4173 134.069 75.4795C134.055 75.5417 134.029 75.6005 133.991 75.6523C133.954 75.7041 133.907 75.7479 133.852 75.7811C133.798 75.8144 133.737 75.8363 133.674 75.8457C133.589 75.8599 133.501 75.8512 133.421 75.8203C133.34 75.7894 133.269 75.7376 133.215 75.6701C132.418 74.8134 131.821 73.791 131.466 72.6761C131.445 72.572 131.459 72.464 131.505 72.3685C131.552 72.273 131.628 72.1953 131.723 72.1473C131.817 72.0993 131.925 72.0836 132.03 72.1026C132.134 72.1216 132.229 72.1742 132.301 72.2525C132.922 73.4587 133.445 74.7127 133.866 76.0023C133.91 76.1279 133.903 76.2654 133.848 76.3862C133.793 76.507 133.693 76.6017 133.569 76.6506C133.475 76.6856 133.373 76.6921 133.276 76.6692C133.179 76.6463 133.09 76.595 133.022 76.5218C132.001 75.5418 131.184 74.3689 130.62 73.0711C130.594 73.0096 130.58 72.9437 130.579 72.8769C130.579 72.8102 130.592 72.7441 130.617 72.6823C130.642 72.6205 130.679 72.5643 130.726 72.517C130.773 72.4697 130.829 72.4321 130.891 72.4065C130.99 72.3665 131.099 72.3584 131.203 72.3833C131.308 72.4082 131.401 72.4649 131.472 72.5454C132.34 73.6908 132.983 74.9905 133.368 76.3756C133.385 76.5073 133.35 76.6405 133.27 76.7465C133.19 76.8525 133.071 76.9228 132.94 76.9421C132.817 76.9584 132.693 76.9318 132.588 76.8667C131.333 75.802 130.48 74.3401 130.17 72.7237C130.16 72.6575 130.164 72.59 130.181 72.5253C130.198 72.4605 130.227 72.3997 130.268 72.3464C130.308 72.2932 130.359 72.2484 130.417 72.2149C130.475 72.1813 130.538 72.1596 130.605 72.1509C130.686 72.1426 130.768 72.1534 130.844 72.1823C130.921 72.2113 130.989 72.2576 131.045 72.3177C131.803 73.1527 132.414 74.111 132.85 75.1514C132.877 75.2118 132.891 75.277 132.892 75.3431C132.894 75.4091 132.882 75.4747 132.857 75.5361C132.832 75.5974 132.796 75.6532 132.749 75.7002C132.703 75.7472 132.647 75.7844 132.586 75.8097C132.49 75.8554 132.381 75.8673 132.276 75.8435C132.172 75.8197 132.079 75.7615 132.012 75.6783C131.045 74.6698 130.481 73.3428 130.424 71.947C130.398 71.5024 130.971 71.081 131.329 71.5163C131.71 72.0118 131.987 72.579 132.143 73.184C132.3 73.7889 132.332 74.4192 132.24 75.0372C132.234 75.1038 132.214 75.1686 132.183 75.2278C132.152 75.287 132.109 75.3394 132.058 75.382C132.006 75.4245 131.946 75.4564 131.882 75.4758C131.818 75.4951 131.751 75.5016 131.684 75.4947C131.585 75.4939 131.489 75.4628 131.408 75.4056C131.327 75.3484 131.266 75.2678 131.232 75.1747C130.692 74.2123 130.495 73.0947 130.674 72.0057C130.692 71.9402 130.723 71.8789 130.764 71.8254C130.806 71.7718 130.858 71.727 130.917 71.6936C130.976 71.6601 131.041 71.6387 131.109 71.6304C131.176 71.6222 131.244 71.6274 131.31 71.6457C131.388 71.6683 131.461 71.7086 131.521 71.7635C131.582 71.8185 131.629 71.8866 131.659 71.9626C131.929 73.0474 132.072 74.16 132.085 75.2778C132.084 75.858 132.12 76.8492 131.458 77.0547C129.997 77.5906 129.55 74.2802 129.381 73.4489C129.275 72.8308 130.087 72.6535 130.385 73.1382C130.875 73.9591 131.272 74.8314 131.571 75.7394C131.622 75.855 131.63 75.9852 131.593 76.106C131.555 76.2269 131.476 76.3302 131.369 76.3972C131.261 76.4641 131.134 76.4901 131.009 76.4703C130.884 76.4506 130.77 76.3865 130.689 76.2897L129.155 74.4287L130.073 74.013L130.805 76.5219C130.964 77.0208 130.203 77.3204 129.887 76.9376C129.285 76.1378 128.821 75.2432 128.513 74.2907L129.523 73.9875C129.832 75.1283 130.027 76.2972 130.105 77.4767C130.134 77.9562 129.504 78.3996 129.193 77.8999C128.47 76.9393 128.155 75.7325 128.316 74.541C128.321 74.4704 128.341 74.4015 128.373 74.3386C128.406 74.2757 128.451 74.22 128.505 74.175C128.56 74.1299 128.623 74.0964 128.691 74.0764C128.759 74.0564 128.831 74.0504 128.901 74.0588C129.017 74.0715 129.126 74.121 129.211 74.2002C129.297 74.2793 129.355 74.3838 129.377 74.4984C129.645 75.4792 129.726 76.5016 129.618 77.5126C129.587 77.6519 129.502 77.7735 129.382 77.8511C129.262 77.9287 129.117 77.9561 128.977 77.9273C128.905 77.9137 128.837 77.8853 128.776 77.8438C128.716 77.8023 128.665 77.7487 128.627 77.6863C128.452 77.4114 128.336 77.1028 128.288 76.7805C128.239 76.4581 128.258 76.1292 128.345 75.8148C128.486 75.2068 129.386 75.2591 129.317 75.9086C129.262 76.1119 129.255 76.325 129.296 76.5314C129.338 76.7379 129.426 76.932 129.554 77.0989L128.562 77.4245C128.638 76.5106 128.561 75.5905 128.335 74.7018L129.396 74.6591C129.284 75.5469 129.525 76.4429 130.067 77.1553L129.149 77.571C129.095 76.3887 128.914 75.2157 128.61 74.0721C128.57 73.9373 128.586 73.7925 128.654 73.6695C128.722 73.5464 128.835 73.4553 128.97 73.4161C129.105 73.3769 129.25 73.3928 129.373 73.4604C129.496 73.528 129.587 73.6417 129.626 73.7764C129.907 74.6538 130.334 75.4773 130.89 76.2124L129.979 76.6356C129.714 75.795 129.471 74.9496 129.248 74.113C129.083 73.6066 129.856 73.3221 130.165 73.6973L131.717 75.5808L130.835 76.1312C130.538 75.2297 130.145 74.3627 129.662 73.5451L130.666 73.2344C130.745 73.7096 130.854 74.1792 130.993 74.6406C131.118 74.9315 131.218 75.2323 131.293 75.5399C131.329 75.7368 131.353 76.2088 131.273 75.7452C131.194 75.2816 131.27 74.4877 131.213 73.8674C131.14 73.2721 131.029 72.6822 130.879 72.1014L131.864 72.0583C131.67 72.9592 131.802 73.8996 132.236 74.7122L131.247 74.8723C131.388 73.9386 131.163 72.9865 130.619 72.2145L131.524 71.7838C131.581 73.0092 132.089 74.1703 132.95 75.0436L132.114 75.5569C131.737 74.5914 131.197 73.6981 130.517 72.9161L131.435 72.5004C131.677 73.875 132.393 75.1216 133.457 76.025L132.632 76.5532C132.281 75.3366 131.701 74.1978 130.925 73.1973L131.762 72.684C132.277 73.8933 133.029 74.9875 133.973 75.9021L133.136 76.4154C132.723 75.1218 132.202 73.8653 131.578 72.6593L132.406 72.2419C132.761 73.2867 133.338 74.2425 134.097 75.0437L133.238 75.4237C133.103 74.1233 132.779 72.8495 132.277 71.6423L133.197 71.4893C133.237 72.714 133.487 73.9228 133.936 75.0628L133.015 75.2295C133.184 74.148 133.06 73.0411 132.655 72.0241C132.441 71.444 133.274 71.0478 133.56 71.5934L134.112 72.8141L133.718 72.5343C135.26 72.8849 136.694 73.6065 137.894 74.6366C138.283 74.9711 137.972 75.694 137.455 75.4645C136.154 74.9215 134.902 74.2669 133.713 73.5078C133.662 73.4702 133.618 73.4228 133.584 73.3682C133.551 73.3137 133.529 73.2531 133.519 73.1898C133.509 73.1266 133.511 73.0621 133.526 72.9999C133.542 72.9377 133.569 72.8791 133.606 72.8275C133.672 72.7435 133.762 72.6822 133.864 72.6524C133.966 72.6225 134.075 72.6257 134.175 72.6613C135.657 73.343 137.156 73.9851 138.623 74.7414C139.178 75.0022 138.828 75.9079 138.281 75.6409C136.826 74.9301 135.291 74.3969 133.709 74.0531L133.918 73.1753C135.149 73.6985 136.442 74.0646 137.764 74.2648L137.457 75.0848C137.087 74.786 136.655 74.5731 136.193 74.4616C135.731 74.35 135.249 74.3427 134.784 74.44L134.871 73.6126C135.76 73.9138 136.717 73.9558 137.629 73.7337L137.548 74.5687C136.6 74.2285 135.722 73.8812 134.846 73.5066C134.763 73.4715 134.696 73.4053 134.66 73.322C134.625 73.2386 134.623 73.1447 134.655 73.0599C134.67 73.0177 134.694 72.9791 134.725 72.9462C134.756 72.9134 134.792 72.8869 134.833 72.8684C134.874 72.8499 134.919 72.8396 134.964 72.8383C135.009 72.837 135.053 72.8445 135.095 72.8606L135.069 72.8443Z" fill="#AF73EA"/>
<path d="M38.2801 61.5554L130.76 71.1161C130.561 71.198 130.391 71.3393 130.275 71.5209C130.158 71.7024 130.101 71.9154 130.11 72.1309L38.2243 62.6345C38.0851 62.6197 37.9573 62.5509 37.8683 62.4428C37.7793 62.3348 37.7362 62.1962 37.7482 62.0567C37.7544 61.9204 37.8134 61.7919 37.9126 61.6983C38.0119 61.6048 38.1437 61.5535 38.2801 61.5554Z" fill="#FF64D2"/>
<path d="M135.757 77.0276L132.058 175.337C132.051 175.407 132.031 175.475 131.998 175.537C131.965 175.6 131.92 175.655 131.865 175.7C131.811 175.744 131.748 175.778 131.681 175.799C131.613 175.819 131.542 175.826 131.472 175.819C131.337 175.801 131.213 175.732 131.126 175.626C131.039 175.52 130.995 175.386 131.002 175.249L134.65 76.831C134.803 76.9552 134.984 77.0384 135.178 77.0728C135.372 77.1072 135.571 77.0916 135.757 77.0276Z" fill="#FF64D2"/>
<path d="M39.5396 56.448C39.3745 58.159 40.3282 59.7292 40.3247 61.4834C39.5785 61.5564 38.9785 61.761 38.3872 61.3033C38.1876 61.1528 37.7113 61.2933 37.3969 61.4011C37.2619 61.4662 37.1577 61.5816 37.1067 61.7225C37.0556 61.8635 37.0618 62.0188 37.1238 62.1553L37.2228 62.2754C37.4392 62.538 37.6679 62.8157 37.8905 63.0858C38.3695 63.5668 38.7378 64.1465 38.9697 64.7845C39.2016 65.4225 39.2916 66.1034 39.2333 66.7797C39.1509 67.9962 39.2067 69.2182 39.3998 70.4222C39.6694 72.4007 39.9912 74.3865 40.3652 76.3798C40.4749 77.0327 40.536 77.6879 40.6443 78.3546C40.7969 79.3502 40.9636 80.2712 41.1851 81.1974C41.8128 84.0693 42.4767 86.924 43.1119 89.7897C43.2171 90.3456 43.2499 90.9359 43.2704 91.5112C43.2637 91.6816 43.2774 91.8522 43.3112 92.0194C43.6934 93.1407 44.0694 94.2546 44.4666 95.3636L44.8126 96.5022C45.1524 97.6332 45.4349 98.7864 45.8533 99.8905C46.9499 102.842 48.0527 105.801 49.2416 108.728C50.4177 111.672 51.8755 114.496 53.5945 117.16C53.9735 117.743 54.3062 118.376 54.6639 118.963C54.7855 119.121 54.8431 119.32 54.8251 119.519C54.8072 119.718 54.7151 119.903 54.5671 120.038C54.3396 120.248 54.1362 120.484 53.9606 120.739C53.8488 120.855 53.7611 120.991 53.7029 121.141C53.6446 121.291 53.6169 121.451 53.6213 121.611C53.6257 121.772 53.6623 121.93 53.7287 122.077C53.7952 122.223 53.8903 122.355 54.0083 122.464C54.1702 122.614 54.3712 122.714 54.5881 122.755C55.2036 122.997 55.8353 123.196 56.4784 123.351C56.7365 123.4 56.9808 123.504 57.194 123.657C57.4072 123.81 57.5842 124.008 57.7122 124.237C58.4534 125.29 59.2091 126.406 59.8929 127.48C62.6773 131.764 65.7885 135.826 69.1989 139.63C71.1439 141.807 73.2164 143.665 75.2409 145.664L76.1321 146.592C76.2852 146.721 76.3903 146.897 76.4304 147.093C76.4704 147.289 76.4431 147.492 76.3527 147.67C76.0703 148.306 75.9407 149.005 76.573 149.467C76.8839 149.751 77.2849 149.918 77.706 149.937C78.127 149.956 78.5415 149.827 78.8769 149.572C78.9497 149.567 79.0212 149.55 79.0888 149.523C79.3339 149.65 79.5717 149.791 79.8011 149.944C82.748 152.19 85.6551 154.419 88.6363 156.523C91.2548 158.446 94.0627 160.096 97.0163 161.449C99.0034 162.331 100.949 163.362 102.938 164.293C104.927 165.224 106.897 166.146 108.888 167.05C108.969 167.147 109.136 167.136 109.254 167.202C112.65 169.154 116.456 170.087 119.997 171.831C120.385 172.03 120.794 172.183 121.217 172.287C123.281 172.897 125.299 173.651 127.258 174.542C128.384 175.025 129.562 175.378 130.769 175.592C131.199 175.668 131.609 175.833 131.973 176.075C132.341 176.328 132.67 176.634 132.949 176.984C133.276 177.382 133.035 177.807 132.944 178.248C132.961 178.432 133.004 178.613 133.072 178.785C133.429 178.688 133.741 178.468 133.951 178.163C134.161 177.858 134.256 177.489 134.22 177.12C134.174 176.471 133.985 175.839 133.666 175.271C133.227 174.692 132.727 174.162 132.175 173.69C134.101 173.199 135.928 172.526 138.169 173.136C137.924 172.85 137.619 172.623 137.275 172.47C136.931 172.318 136.558 172.243 136.182 172.253C135.407 172.287 134.635 172.372 133.871 172.507C131.296 173.054 128.622 172.893 126.131 172.043C125.344 171.772 124.543 171.54 123.732 171.349C120.592 170.574 117.62 169.231 114.962 167.387C114.897 167.328 114.826 167.277 114.749 167.235C111.484 165.567 108.886 163.071 105.909 160.988L106.015 159.893C104.76 160.082 104.041 159.302 103.207 158.641L94.8671 151.654C93.8076 150.75 92.7659 149.807 91.7077 148.89C91.5895 148.761 91.4569 148.646 91.3125 148.548C89.6009 147.602 88.3669 146.074 86.7758 144.953C86.6274 144.86 86.5069 144.728 86.4271 144.572C86.3474 144.416 86.3112 144.242 86.3226 144.067C86.3356 143.579 86.1644 143.103 85.8432 142.736C85.724 142.515 85.535 142.341 85.3058 142.24C85.0767 142.139 84.8205 142.118 84.5776 142.178C84.3346 142.262 84.0718 142.268 83.8252 142.196C83.5787 142.124 83.3604 141.977 83.2004 141.776C82.095 140.633 80.9945 139.512 79.8789 138.402C78.3438 136.845 76.7486 135.337 75.2373 133.748C72.7049 131.072 70.1615 128.367 67.7439 125.647C66.1641 123.837 64.7799 121.79 63.3374 119.917C63.2193 119.771 63.1361 119.599 63.094 119.415C63.0519 119.232 63.052 119.041 63.0943 118.858C63.2133 118.268 63.1333 117.666 63.2748 117.058C63.337 116.753 63.2754 116.435 63.1036 116.175C62.9319 115.915 62.664 115.734 62.3588 115.671C62.1612 115.627 61.9554 115.636 61.7623 115.697C61.5914 115.749 61.4206 115.802 61.2559 115.862C61.0708 115.935 60.8663 115.943 60.6761 115.885C60.4858 115.826 60.3212 115.705 60.2094 115.54C59.9868 115.27 59.7642 115 59.5354 114.722C58.1203 112.638 56.7241 110.5 55.2656 108.363C55.1476 108.175 55.0418 107.98 54.9489 107.779L55.4188 106.561L54.2006 106.443C53.5466 105.386 52.9997 104.267 52.5683 103.101C51.3437 100.331 50.161 97.6262 49.1369 94.8542C48.3036 92.6808 47.6076 90.4447 46.9227 88.2372C46.7877 87.9429 46.7219 87.6216 46.7304 87.298C46.7389 86.9743 46.8214 86.6569 46.9716 86.37C46.6904 86.1839 46.4511 85.9411 46.2691 85.657C46.0872 85.373 45.9666 85.0541 45.9151 84.7208C45.1962 82.0542 44.4536 79.3946 43.6873 76.7418C43.2365 75.1856 42.6997 73.6625 42.264 72.0939C41.3664 69.2497 40.9118 66.2843 40.9159 63.3018C41.059 61.8265 40.8698 60.3378 40.3624 58.9451C40.1383 58.097 39.8636 57.2632 39.5396 56.448ZM80.6837 146.382L79.8979 146.866C79.7559 147.001 79.584 147.101 79.3961 147.157C79.2082 147.214 79.0097 147.225 78.8167 147.19C79.3457 146.745 79.9953 146.469 80.6823 146.396L80.6837 146.382ZM82.5291 142.506C82.4108 142.729 82.3751 142.884 82.2802 142.937C80.8892 143.895 79.5207 144.833 78.1735 145.767C77.9744 145.931 77.7184 146.009 77.4617 145.984C77.2051 145.96 76.9687 145.834 76.8047 145.635C76.0888 144.965 75.2979 144.357 74.6792 143.682C72.2475 141.037 69.5655 138.623 67.3227 135.809C65.2778 133.236 63.2179 130.674 61.343 127.986C60.3116 126.505 59.3452 124.996 58.3575 123.491C58.1473 123.236 58.0285 122.893 57.8398 122.557C58.0373 122.369 58.248 122.196 58.4702 122.038C59.2824 121.495 60.1534 120.915 61.0054 120.39C61.8574 119.864 62.0398 119.979 62.5901 120.646L62.924 121.052C64.3245 122.858 65.7039 124.67 67.1172 126.416C68.1189 127.632 69.1267 128.855 70.2123 129.989C73.76 133.667 77.3951 137.299 80.9864 140.955C81.5251 141.419 82.033 141.918 82.507 142.448L82.5291 142.506ZM53.4493 106.999L51.9917 108.074L50.4753 109.185C50.0901 108.167 49.7247 107.372 49.3995 106.519C48.7836 104.884 48.2825 103.206 47.5593 101.609C46.4373 98.9022 45.4916 96.1252 44.7283 93.2959C44.6064 92.778 44.5186 92.2526 44.4656 91.7232C45.1061 91.2452 45.8344 90.8977 46.609 90.7006C47.4206 92.4827 48.1276 94.3107 48.7262 96.1753C49.4582 97.9659 50.1417 99.7587 50.9038 101.525C51.6659 103.29 52.541 105.102 53.4193 107.024L53.4493 106.999ZM101.521 162.084L97.0287 159.889C96.6724 159.716 96.3045 159.591 95.9469 159.432C95.3826 159.206 94.8309 158.95 94.2941 158.665C93.0916 157.955 91.9218 157.193 90.7344 156.47C90.5392 156.378 90.376 156.23 90.2659 156.045C90.1557 155.859 90.1037 155.645 90.1164 155.43L94.1547 152.593C96.8993 154.502 99.1684 156.828 101.735 158.858C102.522 159.37 103.204 160.027 103.745 160.793C103.123 161.402 102.359 161.846 101.521 162.084ZM80.6591 148.784C80.9851 148.202 81.4928 147.744 82.1043 147.479C82.9856 146.915 83.8956 146.396 84.8307 145.926C85.0967 145.769 85.4056 145.7 85.7131 145.73C86.0206 145.759 86.3107 145.886 86.5417 146.091C87.5132 146.903 88.5223 147.684 89.5 148.504C89.6999 148.731 89.8774 148.978 90.0301 149.239C88.9482 150.533 87.6351 151.615 86.1579 152.43C85.5659 152.766 85.3809 152.679 84.8792 152.223C84.3775 151.767 83.8577 151.427 83.3658 151.013C82.4274 150.287 81.5587 149.554 80.6529 148.776L80.6591 148.784ZM59.3668 116.398C58.3464 117.47 57.075 118.271 55.6674 118.728C54.1365 116.423 52.7812 114.006 51.6128 111.498C52.1668 111.195 52.7373 110.922 53.3218 110.682C53.8657 110.486 54.2293 109.796 54.8863 109.859C56.6064 111.871 58.1063 114.06 59.3606 116.391L59.3668 116.398ZM43.5218 87.0456C43.3322 86.4333 43.1961 86.054 43.0927 85.6227C42.7227 84.0881 42.4137 82.5662 42.0239 81.0228C41.8329 80.21 41.642 79.3972 41.5058 78.5897C41.053 76.0524 40.6351 73.5116 40.2097 70.9769C40.0475 70.4386 40.0477 69.8644 40.2102 69.3261C40.3629 69.3892 40.4702 69.3512 40.502 69.451C40.6327 69.6255 40.7307 69.8221 40.7914 70.0315C41.1793 71.8137 41.6861 73.568 42.3085 75.2825C43.2374 78.6118 44.2088 81.9313 45.1527 85.2482C45.2323 85.6236 45.281 86.0048 45.2983 86.3881L43.5218 87.0456ZM86.9079 153.462C87.1555 153.258 87.3731 153.079 87.6057 152.887C88.3562 152.269 89.1066 151.65 89.857 151.032C91.0581 149.967 91.032 149.95 92.3224 150.966C92.4355 151.033 92.5437 151.108 92.6461 151.191C93.1072 151.567 93.139 151.881 92.6565 152.228C91.6077 153.004 90.5527 153.772 89.4632 154.469C89.168 154.661 88.8093 154.73 88.4636 154.662C88.1424 154.591 87.8419 154.447 87.5851 154.242C87.3283 154.036 87.1221 153.774 86.9825 153.476L86.9079 153.462ZM50.6949 109.773C51.5628 109.297 52.2736 108.875 53.0214 108.498C53.2492 108.376 53.5013 108.306 53.7596 108.293C53.8419 108.307 53.9198 108.341 53.987 108.39C54.0541 108.44 54.1087 108.505 54.1464 108.579C54.1662 108.656 54.1676 108.737 54.1506 108.814C54.1335 108.892 54.0984 108.964 54.0481 109.026C53.166 109.76 52.1395 110.301 51.0351 110.614L50.6949 109.773ZM109.483 165.829C108.325 165.234 107.177 165.033 106.224 164.168C106.799 163.795 107.324 163.652 107.776 163.972C108.459 164.342 109.309 164.624 109.529 165.779L109.483 165.829ZM44.3104 90.5409C43.8355 89.5211 43.861 89.3993 44.6076 89.0361C44.7983 88.9353 44.996 88.8482 45.1991 88.7755C45.2746 88.7329 45.3578 88.7059 45.4439 88.6959C45.5299 88.6859 45.6171 88.6931 45.7004 88.7172C45.7836 88.7413 45.8612 88.7818 45.9285 88.8363C45.9959 88.8907 46.0518 88.9581 46.0928 89.0344C46.1571 89.1773 46.1642 89.3393 46.1126 89.4872C46.0611 89.6351 45.9549 89.7576 45.8158 89.8297C45.3412 90.0947 44.811 90.2922 44.3042 90.5334L44.3104 90.5409ZM103.277 162.716C103.336 162.606 103.408 162.504 103.492 162.412C103.707 162.263 103.93 162.125 104.161 162C104.671 161.718 105.076 161.75 105.125 162.1C105.129 162.267 105.087 162.431 105.004 162.576C104.921 162.72 104.799 162.838 104.652 162.918C104.09 163.382 103.873 163.333 103.246 162.741L103.277 162.716ZM59.2242 118.09C59.207 118.268 59.2662 118.371 59.2026 118.385C58.6057 118.932 57.8696 119.303 57.0752 119.458L59.2242 118.09ZM57.5012 120.984L57.6813 120.836L57.7864 120.963C57.7832 120.985 57.7722 121.004 57.7556 121.018C57.739 121.031 57.7179 121.038 57.6964 121.038L57.5012 120.984Z" fill="#FF64D2"/>
<path d="M56.5606 136.815C55.4692 135.383 56.4163 133.872 56.1912 132.269C55.9135 132.498 55.6628 132.591 55.6284 132.733C55.1897 134.122 55.2527 135.622 55.8065 136.97C56.1248 137.544 56.5559 138.047 57.0738 138.449C57.5917 138.852 58.1857 139.146 58.8201 139.313C59.2139 139.454 59.6166 139.576 60.0317 139.713C59.612 140.411 58.5684 140.918 54.3488 142.77C51.1716 144.128 49.4056 144.676 48.0996 144.681C48.1692 144.476 48.2531 144.277 48.3507 144.084C50.409 140.649 52.4934 137.231 54.5518 133.796C54.7888 133.393 54.9935 132.971 55.1638 132.536C55.2622 132.304 55.3509 132.029 54.9199 131.842C54.7418 131.993 54.5835 132.166 54.449 132.356C53.2685 134.425 52.0928 136.515 50.8377 138.57C49.9303 140.099 48.9386 141.571 48.0127 143.077C47.6383 143.667 47.3022 144.281 47.0065 144.914C46.578 145.847 46.8744 146.283 47.9896 146.107C48.4616 146.054 48.9282 145.96 49.3843 145.827C52.185 144.864 54.9297 143.765 57.6182 142.533C59.2203 141.893 60.7698 141.083 62.3525 140.358C62.6071 140.255 62.8167 140.065 62.944 139.822C63.0712 139.578 63.1078 139.298 63.0471 139.03C62.0753 138.936 61.0487 138.837 60.0725 138.646C59.0372 138.415 58.056 137.988 57.1824 137.386C57.8084 136.984 58.3527 136.712 58.8316 136.33C60.9478 134.586 63.0715 132.836 65.1577 131.117C66.2233 130.239 67.3772 129.377 68.4627 128.507C69.9985 127.242 71.5419 125.97 73.0928 124.692C75.1489 122.998 77.1666 121.273 79.1919 119.541C81.9989 117.152 84.786 114.755 87.5917 112.38C89.1675 111.082 90.7735 109.759 92.3118 108.491C93.5725 107.452 94.8098 106.37 96.0718 105.317C98.198 103.565 100.332 101.807 102.473 100.043C106.465 96.7535 110.525 93.4084 114.57 90.0756C117.758 87.3855 120.95 84.6543 124.239 81.9324C125.117 81.2089 126.053 80.5257 126.888 79.7497C127.148 79.4977 127.47 79.3194 127.822 79.2332C128.174 79.147 128.542 79.1559 128.89 79.2591L135.276 80.2967C135.372 80.2931 135.467 80.2743 135.557 80.241C135.643 79.3514 135.548 79.2662 134.787 79.1374C134.148 79.1388 133.532 78.8994 133.062 78.4668L135.797 78.406L135.456 77.4268C135.996 77.4099 136.438 77.4111 136.892 77.3651C137.345 77.319 137.781 77.2368 138.287 77.1475L138.143 76.208C138.223 76.1564 138.311 76.1182 138.403 76.0949C138.819 76.0798 139.247 76.0796 139.666 76.0994C140.025 76.136 140.386 76.1501 140.747 76.1415C141.109 76.1074 141.554 76.2194 141.714 75.7858C141.873 75.3522 141.459 74.9876 141.15 74.7506C140.89 74.6035 140.603 74.5101 140.307 74.4758C139.477 74.296 138.691 73.9549 137.993 73.4719L139.876 73.0665C138.578 72.4232 137.276 72.8156 136.033 72.3779C135.978 71.8062 135.925 71.207 135.862 70.6414C135.75 69.8017 135.631 68.9545 135.484 68.1183C135.424 67.7395 135.375 67.3134 134.844 67.2345C134.313 67.1556 134.304 67.6797 134.028 68.033C133.731 67.6728 133.749 66.9147 132.881 67.1763L131.867 70.1661L130.801 69.5452C130.413 70.4195 130.07 71.1807 129.707 72.0091L128.671 70.9352C128.464 71.0626 128.297 71.2439 128.186 71.4596C128.075 71.6754 128.025 71.9172 128.041 72.1592C127.94 73.2132 127.841 74.2397 127.671 75.2871C127.629 75.548 127.567 75.8053 127.486 76.0567C126.665 74.4648 126.809 72.8346 126.497 71.3402C125.882 71.2048 125.786 71.6238 125.803 72.026C125.887 73.015 125.979 74.0601 126.145 75.057C126.292 75.9183 126.496 76.7688 126.756 77.6026C126.866 77.8243 126.888 78.0797 126.816 78.3166C126.745 78.5536 126.585 78.7543 126.371 78.8778C123.166 81.5181 119.887 84.2201 116.652 86.9611C113.966 89.1747 111.279 91.3883 108.593 93.6019C106.822 95.0611 105.058 96.5142 103.28 97.9796C100.323 100.416 97.3158 102.806 94.3715 105.257C92.7731 106.574 91.275 107.997 89.7199 109.367C88.9695 109.985 88.219 110.603 87.4686 111.222C86.7182 111.84 85.8583 112.662 85.0302 113.37C82.5463 115.416 80.0624 117.463 77.6011 119.491C75.8301 120.95 74.101 122.476 72.2581 123.893C69.6691 126.027 67.0802 128.16 64.463 130.228C62.3618 131.959 60.2831 133.672 58.227 135.366C57.8442 135.682 57.5322 136.052 57.1495 136.368C56.9665 136.534 56.7695 136.683 56.5606 136.815ZM130.817 75.8946C130.632 74.4908 130.744 73.0638 131.145 71.7059L131.684 73.7817C131.727 74.1038 131.85 74.41 132.042 74.6723C132.234 74.9345 132.489 75.1445 132.782 75.2831C133.062 75.4594 133.309 75.6817 133.513 75.9407C133.49 76.0095 133.46 76.076 133.425 76.1394L130.817 75.8946ZM134.612 74.5064C134.774 73.5412 134.903 73.4224 135.64 73.6593C136.377 73.8962 137.224 74.2819 138.001 74.5987C138.125 74.6106 138.175 74.8088 138.3 74.8692C138.279 74.9344 138.25 74.9966 138.213 75.0543L134.612 74.5064ZM132.813 74.2499C132.596 73.3836 132.638 72.4724 132.935 71.6299L133.825 74.3613L132.813 74.2499ZM129.361 77.0942C129.107 76.9191 128.883 76.7038 128.697 76.4568C128.621 76.1944 128.599 75.919 128.634 75.6478C128.668 75.3767 128.758 75.1155 128.898 74.8805C129.612 76.5727 129.612 76.5727 129.357 77.1353L129.361 77.0942Z" fill="#FF64D2"/>
</g>
</g>
<defs>
<clipPath id="clip0_159_10630">
<rect width="154" height="140" fill="white" transform="translate(97.9302 207.879) rotate(-129.487)"/>
</clipPath>
<clipPath id="clip1_159_10630">
<rect width="154" height="118.111" fill="white" transform="translate(97.9302 207.879) rotate(-129.487)"/>
</clipPath>
</defs>
</svg>
