<svg width="1273" height="927" viewBox="0 0 1273 927" fill="none" xmlns="http://www.w3.org/2000/svg">
<g style="mix-blend-mode:soft-light" clip-path="url(#clip0_159_10750)">
<path d="M1279 72.6244C1279 72.6244 1142.8 12.1174 986.523 22.1671C830.245 32.2169 802.081 166.246 748.321 240.794C694.56 315.342 553.614 274.261 450.487 368.652C347.36 463.043 411.161 621.644 363.206 723.023C315.251 824.402 82.0686 793.404 0 927H1279V72.6244Z" fill="#FF59A1"/>
<path d="M85.7413 906.564H85.3724C84.378 906.435 83.2714 905.794 83.3355 903.647V903.534C83.3195 903.385 83.3195 903.235 83.3355 903.086L83.6884 899.992C84.3607 893.878 85.5628 887.834 87.281 881.928C90.3924 868.064 95.1879 852.821 101.716 846.538C107.114 841.454 113.153 837.095 119.679 833.571C123.965 830.002 128.458 826.689 133.135 823.649C159.39 806.37 193.792 794.798 227.056 783.482C269.943 768.96 314.321 753.942 343.655 726.565C376.903 695.631 376.903 632.174 376.903 565.048C376.903 530.202 376.903 494.763 381.329 462.242C380.399 445.765 379.726 429.255 380.014 412.842C380.463 364.934 407.039 325.408 456.886 298.512C507.52 271.184 563.221 265.75 579.099 264.74C589.252 264.083 599.837 263.907 610.069 263.747C648.417 263.105 688.112 262.448 715.923 237.38C733.565 221.512 742.803 198.223 751.817 175.703C755.522 166.438 759.323 156.837 763.717 147.813C800.317 71.7108 855.361 24.4432 927.021 7.22873C965.368 -1.98757 1027.74 -6.58771 1113.35 19.8751C1137.44 25.7115 1160.69 34.5764 1182.54 46.2578C1228.69 67.2068 1263.38 89.7748 1279 101.972L1276.08 105.931C1264.85 97.1959 1243.81 83.0909 1215.68 68.0884C1238.98 86.6973 1250.63 104.393 1255.09 112.295L1250.9 114.779C1245.4 105.066 1228.61 79.9334 1191.33 57.0769C1187.77 54.9398 1184.13 52.8027 1180.41 50.6656C1166.7 44.4466 1151.96 38.3879 1136.4 32.7779C1128.7 29.989 1120.48 27.2161 1111.8 24.5554C1077.01 15.868 1037.69 11.7327 994.19 12.3258C853.709 14.1049 813.308 117.728 783.862 193.446C773.373 220.406 764.311 243.679 752.539 257.031C743.798 266.936 715.763 270.446 676.934 275.303C600.334 284.92 484.553 299.346 419.533 376.282C400.287 399.042 390.84 429.079 386.189 462.386C387.568 486.14 389.782 509.798 391.963 533.023C393.807 552.754 395.732 573.094 397.079 593.274C400.816 648.267 401.891 701 374.032 741.664C353.824 771.156 319.405 791.961 271.707 803.469C253.648 807.829 235.027 810.714 217.08 813.503C196.23 816.709 174.803 820.075 154.225 825.669C143.088 828.476 132.322 832.586 122.149 837.914C108.131 849.839 97.6739 864.265 92.1085 882.617C90.5047 889.67 89.1414 897.043 88.115 903.983C88.131 904.095 88.131 904.208 88.115 904.32C87.698 906.227 86.5111 906.564 85.7413 906.564ZM383.318 490.756C381.714 514.911 381.714 540.091 381.714 564.967C381.714 633.232 381.794 697.698 347.023 730.172C316.919 758.253 272.108 773.448 228.676 788.114C196.759 798.917 165.661 809.432 140.865 824.515C145.035 823.104 149.093 821.918 152.894 820.892C173.744 815.218 195.364 811.852 216.262 808.615C234.193 805.842 252.717 802.973 270.584 798.661C317.096 787.441 350.552 767.293 370.022 738.827C396.951 699.493 395.876 647.706 392.219 593.642C390.856 573.591 389.012 553.203 387.087 533.504C385.756 519.399 384.425 505.134 383.318 490.756ZM991.479 4.92065C970.149 4.80471 948.879 7.20418 928.111 12.0693C857.879 28.9311 804.022 75.3012 767.871 149.913C763.589 158.777 759.852 168.298 756.131 177.482C746.957 200.531 737.414 224.365 718.986 241.002C689.828 267.273 649.299 267.946 610.069 268.603C599.885 268.763 589.364 268.94 579.34 269.581C547.119 271.649 498.602 281.458 459.052 302.792C410.199 329.158 385.275 366.152 384.762 412.778C384.681 421.914 384.762 431.083 385.114 440.267C390.712 414.621 400.11 391.589 415.796 372.948C482.067 294.569 598.939 279.983 676.276 270.254C712.635 265.702 741.36 262.112 748.882 253.585C760.109 240.89 768.978 218.002 779.355 191.491C793.789 154.401 811.753 108.239 843.749 71.8871C881.295 29.3318 930.421 8.19044 994.061 7.38902C1011.07 7.18599 1027.44 7.67218 1043.15 8.8476C1026.05 6.29862 1008.78 4.98624 991.479 4.92065Z" fill="#FF59A1"/>
<path d="M61.6837 912.222C61.5393 911.501 58.476 894.446 67.7141 872.536C82.9667 836.264 119.775 815.635 147.906 804.736C172.429 795.247 200.464 787.104 230.167 778.353C317.769 752.708 408.37 726.197 415.026 664.552C418.49 632.399 414.577 598.675 410.439 562.964C403.912 506.656 397.127 448.425 421.746 396.862C444.088 350.075 522.965 321.673 599.26 294.281C661.296 271.969 719.868 250.876 749.107 221.175C769.411 200.579 781.376 169.756 794.014 137.09C808.176 100.578 822.883 62.8151 850.517 37.0255C882.113 7.64549 926.123 -1.28231 985.144 9.61698C1039.77 19.7309 1118.94 40.9364 1185.62 84.5816C1225.34 110.596 1244.98 134.782 1247.23 140.184L1242.79 142.188C1241.69 139.607 1224.81 116.206 1182.95 88.7971C1146.55 64.9308 1082.59 32.6978 984.31 14.5217C856.003 -9.20032 826.861 66.0688 798.633 138.854C785.802 171.984 773.661 203.304 752.619 224.637C722.563 255.091 663.477 276.377 600.944 298.881C525.563 326.001 447.632 354.05 426.125 399.01C402.067 449.259 408.803 506.753 415.267 562.355C419.26 596.768 423.382 632.351 419.854 665.065C412.845 730.076 320.64 757.035 231.499 783.129C201.843 791.801 173.953 799.975 149.638 809.432C122.469 819.963 86.9442 839.726 72.269 874.251C63.5281 894.831 66.399 911.116 66.4311 911.324L61.6837 912.222Z" fill="#FF59A1"/>
<path d="M37.0007 922.672H32.1892C32.1892 921.887 32.6543 903.134 43.2557 877.585C53.0231 854.103 73.6325 820.187 116.487 792.394C148.564 771.557 196.262 762.677 242.373 754.102C314.754 740.654 383.094 727.928 383.767 671.748C384.008 651.937 382.356 627.414 380.656 601.464C377.224 551.055 373.375 493.898 380.656 442.783C389.124 382.917 411.289 343.536 448.386 322.394C493.47 296.749 549.428 277.803 603.494 259.499C671.577 236.466 735.875 214.732 757.799 184.342C763.317 176.665 769.026 168.057 774.961 158.921C811.416 103.511 861.408 27.6329 972.233 25.5492C1098.71 23.0968 1274.36 65.7162 1276.19 66.0528L1275.07 70.8613C1273.26 70.5247 1098.26 28.0496 972.329 30.4538C863.974 32.4895 814.752 107.117 778.874 161.646C772.827 170.814 767.134 179.469 761.52 187.291C738.682 218.947 676.677 239.928 604.857 264.227C550.968 282.452 495.267 301.285 450.6 326.738C414.898 347.078 393.519 385.274 385.291 443.505C378.122 494.138 381.971 551.023 385.291 601.192C387.055 627.238 388.739 651.857 388.499 671.877C387.777 732.159 317.513 745.206 243.111 759.055C197.609 767.566 150.344 776.269 119.005 796.609C95.958 811.564 64.9397 838.091 47.6823 879.476C37.4177 904.128 37.0007 922.496 37.0007 922.672Z" fill="#FF59A1"/>
</g>
<defs>
<clipPath id="clip0_159_10750">
<rect width="1279" height="927" fill="white"/>
</clipPath>
</defs>
</svg>
