<svg width="80" height="110" viewBox="0 0 80 110" fill="none" xmlns="http://www.w3.org/2000/svg">
<path d="M76.0772 94.2688C75.2174 91.6653 74.2219 89.1085 73.0947 86.6091C69.5076 79.016 65.7863 71.4227 62.7031 63.6285C59.62 55.8343 56.7384 48.1075 53.6216 40.3468C52.6551 37.4624 51.3138 34.7174 49.6321 32.1824C48.4899 30.6313 47.2693 29.1394 45.9752 27.7126L44.9012 26.9057L46.7163 25.0937C48.8676 22.7782 50.2808 19.7232 52.2644 17.2397C53.004 16.3335 54.8522 15.0589 54.0138 13.6476C53.1754 12.2364 49.9523 11.1589 48.4423 9.61276C48.3274 9.50361 48.1899 9.42121 48.0395 9.37145C47.889 9.32169 47.7295 9.3058 47.5722 9.32493C47.4149 9.34405 47.2638 9.39771 47.1297 9.48206C46.9956 9.56642 46.8818 9.67938 46.7965 9.81286C45.3696 12.3254 44.2403 14.9956 43.4312 17.7695C43.2293 18.3402 42.1178 22.0336 41.4105 24.4846C41.8824 22.47 42.5222 20.489 42.9269 18.5079C43.6364 14.3386 43.9102 10.1068 43.7436 5.88089C43.5789 2.15289 42.8754 0.0364746 38.4423 0.032695C38.2185 0.0393945 38.0028 0.118083 37.8272 0.257081C37.6516 0.39608 37.5256 0.587981 37.4677 0.804304C36.7497 4.11171 36.5541 7.51118 36.8882 10.8791C36.8842 15.5809 37.216 20.3166 37.3463 25.0185C36.3019 21.5392 35.4417 18.0072 34.7693 14.4372C33.9995 11.3804 32.8939 8.25613 32.2584 5.19941C32.206 4.98024 32.0816 4.78496 31.9052 4.64479C31.7288 4.50461 31.5104 4.42763 31.2851 4.42614C26.4152 4.6235 26.3793 7.31021 27.5179 11.1398C28.5847 14.078 29.8734 16.9308 31.3728 19.6735C32.5797 22.2605 33.0474 25.1828 34.0863 27.7696C33.0107 28.8434 31.3631 31.1258 30.4218 32.2332C28.7058 34.7339 27.3365 37.4554 26.3512 40.3236C23.1877 47.9445 20.2928 55.8008 17.2301 63.4554C14.1674 71.11 10.5001 78.8313 6.79937 86.4182C5.65544 88.8353 4.67918 91.5548 3.77025 94.0729C2.32269 97.3403 1.07492 100.693 0.0338336 104.111C-0.000504287 104.253 -0.00471095 104.4 0.0214859 104.544C0.0476827 104.687 0.103699 104.823 0.185909 104.944C0.268119 105.064 0.37469 105.166 0.498724 105.243C0.622757 105.319 0.761489 105.369 0.905938 105.388C1.04304 105.642 1.2708 105.834 1.54358 105.926C6.49122 107.374 11.5272 108.5 16.6201 109.298C21.3693 109.839 26.1583 109.945 30.9267 109.612C31.0815 109.647 31.2421 109.647 31.3969 109.612C31.5953 109.662 31.803 109.663 32.0014 109.613C32.1586 109.603 32.3102 109.552 32.4404 109.463C32.5705 109.375 32.6743 109.252 32.7407 109.11C34.0606 105.847 35.0972 102.477 35.8391 99.0371C37.2419 94.5669 38.3123 89.9991 39.0412 85.371C39.3114 83.6249 39.5816 81.8115 39.8854 80.0318C40.1532 81.0732 40.4881 82.1482 40.7223 83.1895C41.4919 86.5486 42.3622 89.9077 43.2661 93.2669C44.17 96.6261 45.4101 99.6834 46.1124 103.143C46.3465 104.252 47.1848 105.831 47.6202 107.175C47.6918 107.406 47.7477 107.641 47.7876 107.88C47.8166 108.125 47.8164 108.373 47.7869 108.619C47.7867 108.796 47.833 108.97 47.9212 109.123C48.0095 109.276 48.1366 109.404 48.2897 109.492C48.4428 109.581 48.6165 109.628 48.7934 109.628C48.9703 109.628 49.1442 109.582 49.2975 109.493L49.7005 109.494C54.4796 109.834 59.2798 109.737 64.0412 109.204C69.1355 108.414 74.1734 107.297 79.1235 105.858C79.3363 105.788 79.5221 105.654 79.6547 105.473C79.7873 105.293 79.8602 105.075 79.8632 104.851L79.8634 104.582C79.8702 104.45 79.8465 104.317 79.7942 104.195C79.742 104.073 79.6624 103.964 79.5618 103.877C78.5929 100.608 77.4293 97.3992 76.0772 94.2688ZM33.1537 18.6339C32.3492 16.8197 26.6813 7.64631 29.9733 6.74234C31.0147 6.44097 32.3185 13.4612 32.7538 15.04C33.189 16.6189 33.6573 18.8358 34.0587 20.7169C33.6899 19.9777 33.4218 19.3058 33.1537 18.6339ZM71.7495 88.7237C71.7362 88.8577 71.7361 88.9927 71.7492 89.1268C69.5846 90.0177 67.3329 90.6799 65.0306 91.1025C65.199 90.5653 65.4009 90.0617 65.5357 89.5245C65.6891 88.5246 65.9144 87.5371 66.2099 86.5696C66.4456 85.9317 66.5468 85.3273 66.7153 84.6893L66.8831 84.8574C67.9595 85.6124 68.9801 86.4438 69.9371 87.3452C70.4405 87.8494 71.1119 88.1523 71.5816 88.69L71.7495 88.7237ZM43.5267 23.9827C44.6468 19.8301 46.1338 15.7853 47.9701 11.8961C49.2791 12.8712 50.7563 13.4769 52.0652 14.5527C50.3184 16.258 48.7627 18.1485 47.4257 20.191C46.3936 22.2048 45.0167 24.0222 43.3574 25.561L43.1895 25.5608C43.3245 24.8221 43.4257 24.3184 43.5267 23.9827ZM39.1786 3.05591C39.1794 2.08197 41.1265 3.05757 41.5295 3.05792C41.9325 3.05826 41.2505 15.1816 41.0476 16.8271C40.6081 19.0914 40.0569 21.3326 39.3962 23.5425C39.4004 18.6728 38.9344 13.7691 38.9385 8.8658C38.9401 6.98508 39.2777 4.9703 39.1786 3.05591ZM31.399 107.161L31.0968 107.16L31.0964 107.563C26.0426 107.862 20.972 107.689 15.9503 107.047C14.9094 106.844 3.02341 103.442 3.02244 104.584C3.03184 104.392 2.97779 104.203 2.86865 104.045C2.75951 103.887 2.60135 103.769 2.41866 103.71C3.01235 101.418 3.77767 99.1732 4.70812 96.9955C9.74448 98.5111 15.2186 98.6501 20.356 99.7963C24.578 100.994 28.998 101.329 33.3523 100.781C32.8806 102.937 32.2271 105.048 31.3991 107.094L31.399 107.161ZM33.8244 98.6324L33.6228 98.6322C29.2222 99.8711 22.9769 98.2873 18.6118 97.3096C14.2466 96.3319 9.74637 96.2945 5.58292 95.1155L6.52517 92.8998C6.6295 93.0044 6.75555 93.0847 6.8944 93.1352C15.7265 96.0928 25.0225 97.4208 34.3295 97.0543C34.0269 97.4235 33.9256 98.0279 33.8244 98.5652L33.8244 98.6324ZM7.76919 91.2552C8.24865 90.749 8.75347 90.2674 9.28172 89.8124C10.1587 88.8303 11.1142 87.9214 12.1387 87.0945L12.1388 86.9265C12.3398 87.5312 12.5072 88.1359 12.7754 88.7406C13.1624 89.6748 13.465 90.6416 13.6797 91.6297C13.8807 92.2008 14.1154 92.7383 14.35 93.2759C12.1233 92.7152 9.92681 92.0408 7.76919 91.2552ZM16.197 93.479C17.8776 91.8683 18.9876 89.8206 20.5339 88.1091C20.8241 88.72 21.1843 89.2951 21.6072 89.8229C22.4876 91.3913 23.2822 93.0064 23.9875 94.661C21.3701 94.4175 18.7689 94.0228 16.197 93.479ZM25.4652 94.7631C26.8863 93.2122 28.2111 91.5758 29.4323 89.8631C30.1384 88.8898 30.9425 91.1742 31.1101 91.4766C31.7808 92.6862 32.6194 93.7952 33.2902 94.8369C30.6823 94.9469 28.0705 94.9223 25.4652 94.7631ZM37.3973 83.4217C36.6551 87.2497 35.5773 90.9431 34.6673 94.7373L34.4658 94.7371L34.2644 94.569C33.5602 93.3258 32.688 92.1832 31.9838 90.9064C31.5946 89.8368 31.0152 88.8464 30.2735 87.9831C30.1738 87.8886 30.0416 87.8358 29.9042 87.8357C29.7668 87.8355 29.6345 87.8881 29.5346 87.9825C27.9209 89.9962 26.4078 92.0435 24.727 93.99C24.0563 92.7468 23.5201 91.4365 22.9838 90.1599C22.4476 88.8832 21.2391 88.1769 21.2401 87.1022C21.2459 86.9987 21.2196 86.8958 21.1647 86.8078C21.1099 86.7197 21.0293 86.6507 20.9338 86.6102C20.8383 86.5698 20.7326 86.5597 20.6312 86.5815C20.5298 86.6033 20.4376 86.6559 20.3672 86.732C18.4849 88.544 17.3411 90.8268 15.526 92.6388C14.8895 90.7911 14.1857 88.9769 13.5156 87.1292C13.3146 86.5581 13.5173 85.1813 12.3078 85.6841C11.0984 86.1868 10.0895 87.6972 8.94691 88.603C8.64445 88.8379 8.10675 89.2404 7.6362 89.6766C7.80444 89.3073 7.93909 88.938 8.07371 88.6023C9.45368 85.0771 11.0351 81.6529 12.6836 78.2287C17.8212 79.2406 23.1939 80.0848 28.2305 81.3988C31.2665 82.2382 34.4286 82.5253 37.5662 82.2464C37.5659 82.6158 37.4984 83.0188 37.3973 83.4217ZM41.1323 74.9617C41.1223 74.7454 41.0527 74.5362 40.9313 74.357C40.9316 74.0211 40.9319 73.6853 41.1001 73.3832C41.842 69.8574 41.1065 65.9274 41.9154 62.4689C41.9503 62.3142 41.9504 62.1536 41.9158 61.9988L41.916 61.8308C41.8959 61.5947 41.7959 61.3725 41.6325 61.2009C41.469 61.0293 41.2519 60.9186 41.0171 60.8871C40.7822 60.8556 40.5436 60.9051 40.3407 61.0275C40.1378 61.15 39.9827 61.338 39.9011 61.5604C39.3988 64.6356 39.149 67.7467 39.1544 70.8627C38.9275 73.8711 38.5326 76.8644 37.9713 79.8287C37.863 79.8839 37.7616 79.9514 37.6688 80.0299C35.4203 80.1865 33.1609 80.0377 30.9523 79.5876C29.1727 79.2167 27.3257 79.0807 25.5459 78.8106C21.5163 78.169 17.5878 77.1581 13.592 76.3151C15.005 73.4617 16.418 70.5746 17.7302 67.7211C20.5229 61.6111 23.0471 55.333 25.5041 49.0884C26.7832 45.731 27.7933 42.6421 29.0387 39.4191C29.6397 37.9129 30.395 36.473 31.2925 35.1222C31.397 35.0178 31.5232 34.9377 31.6621 34.8875L32.2668 34.7201L32.4347 34.7202C34.9533 34.991 37.6405 34.4895 40.1593 34.5253C41.3347 34.5263 42.4766 34.5273 43.5177 34.5281C44.7559 34.3781 46.0077 34.3791 47.2456 34.5313L47.4471 34.5315C47.6024 34.5615 47.7619 34.5617 47.9173 34.5319L48.1524 34.5321C49.1321 35.9617 49.9529 37.4939 50.6001 39.1016C51.8399 42.4611 52.8448 45.5518 53.9503 48.7768C56.3966 55.0256 58.9101 61.308 61.6924 67.4227L63.9385 72.16C63.9002 72.3371 63.9001 72.5202 63.938 72.6974C63.939 71.5219 62.8969 72.6965 61.9223 73.4345C59.3263 74.9091 56.5476 76.0359 53.6577 76.7859C49.6593 77.8116 45.5972 78.571 41.4983 79.0593C41.2327 77.71 41.1101 76.3366 41.1323 74.9617ZM45.7843 94.0751C44.7792 91.1524 44.1101 88.1292 43.3066 85.1396C43.0054 83.9974 42.637 82.7545 42.2687 81.4444C45.9425 81.0135 49.5877 80.3661 53.1852 79.5058C55.776 78.7976 58.3224 77.9363 60.8111 76.9263C62.3901 76.3231 63.6673 75.0816 65.2128 74.4112C67.1908 78.4766 69.1688 82.542 70.8781 86.6744L70.5762 86.2711C69.3678 85.464 68.3615 84.0862 66.9849 83.5813C65.6084 83.0763 66.0437 84.5544 65.8753 85.1252C65.3699 87.0391 64.7974 88.8857 64.3256 90.7997C62.3792 89.1188 60.9705 86.901 59.024 85.2873C58.9498 85.2206 58.8576 85.1774 58.7588 85.1632C58.6601 85.1489 58.5594 85.1644 58.4694 85.2074C58.3795 85.2505 58.3043 85.3193 58.2535 85.4052C58.2027 85.491 58.1785 85.59 58.184 85.6896C58.1831 86.7643 56.9731 87.9051 56.67 88.8788C56.3669 89.8525 55.7946 91.5312 55.2561 92.807C53.4105 91.0254 51.733 89.0761 49.9881 87.2275C49.8884 87.1329 49.7563 87.0802 49.6188 87.08C49.4814 87.0799 49.3492 87.1325 49.2493 87.2269C48.5783 88.1526 48.098 89.2025 47.8361 90.3154C47.0626 91.6245 46.3563 92.7322 45.7843 94.0751ZM63.4182 91.6049C62.8808 91.6044 62.3432 91.8391 61.8058 92.0065C59.9582 92.5087 58.0099 92.9437 56.0281 93.3114C56.5628 91.6821 57.2036 90.0896 57.9465 88.5441C58.3071 87.9769 58.622 87.3819 58.8884 86.7649C60.4992 88.1768 61.7067 90.025 63.4182 91.5041L63.4182 91.6049ZM54.3151 93.6122C51.8375 94.0125 49.3345 94.2348 46.8252 94.2775C47.3635 93.1361 48.0361 92.062 48.5745 90.9206C48.7427 90.5849 49.3492 88.2345 50.1208 89.1755C51.4349 90.6998 52.8353 92.1475 54.3152 93.5114L54.3151 93.6122ZM47.292 98.2744L46.5884 96.3259C51.3311 96.1618 56.0457 95.5245 60.6618 94.4236C64.7712 93.7074 68.7996 92.5858 72.6879 91.0755C73.0901 92.0497 73.5258 93.0241 73.9616 93.9984C69.7286 95.6404 65.1608 96.0395 60.8273 97.3456C58.2086 97.8707 55.5338 98.0603 52.8673 97.9098C51.0196 98.1546 49.1546 98.2429 47.2921 98.1737L47.292 98.2744ZM65.0506 107.122C60.0165 107.756 54.9345 107.921 49.87 107.613L49.8704 107.21L49.7024 107.21C49.4061 106.635 49.1811 106.026 49.0323 105.396C48.765 103.817 48.4306 102.037 48.0289 100.492C51.886 100.514 55.7385 100.225 59.5491 99.6283C64.6769 99.1735 69.7118 97.9787 74.4972 96.0811L74.8332 95.8463C76.1057 98.6353 77.1152 101.537 77.8484 104.514C73.5187 104.983 69.2372 105.822 65.0506 107.022L65.0506 107.122Z" fill="#FFD3F7"/>
</svg>
