<svg width="924" height="18" viewBox="0 0 924 18" fill="none" xmlns="http://www.w3.org/2000/svg">
<g clip-path="url(#clip0_173_17482)">
<path d="M2.38127 17.2099C2.71953 15.7565 2.71953 14.2734 2.38127 12.82C2.16992 11.2299 2.02901 9.61995 1.78947 8.02995C1.40903 5.37995 0.66223 2.84995 1.26812 0.179951C1.26812 0.0299508 0.91586 -0.0100492 0.789045 0.109951C-1.28226 2.22995 0.169062 5.27995 0.408601 7.55995C0.521325 10.78 0.873589 13.99 1.43721 17.18C1.54993 17.46 2.26855 17.5199 2.38127 17.2099Z" fill="#FF71A8"/>
<path d="M8.84876 16.4498C9.34306 15.1472 9.48176 13.7895 9.25739 12.4498C9.15875 10.9998 9.10239 9.53984 8.9333 8.08984C8.6374 5.66984 7.98924 3.37984 8.58104 0.95984C8.58104 0.82984 8.22878 0.78984 8.11605 0.88984C6.03066 2.80984 7.42562 5.55984 7.56652 7.63984C7.76379 10.5298 7.46789 13.4698 7.96106 16.3698C8.00333 16.6398 8.72195 16.7298 8.84876 16.4498Z" fill="#FF71A8"/>
<path d="M16.049 16.11C16.5089 14.8636 16.6048 13.5636 16.3308 12.29C16.1899 10.9 16.0913 9.50995 15.8658 8.11995C15.4995 5.80995 14.7668 3.63995 15.2881 1.30995C15.2881 1.17995 14.9218 1.14995 14.8091 1.24995C12.7941 3.11995 14.2877 5.72995 14.485 7.70995C14.7809 10.48 14.5836 13.3 15.1613 16.06C15.2177 16.3 15.9363 16.38 16.049 16.11Z" fill="#FF71A8"/>
<path d="M23.4043 16.5099C23.7798 15.1914 23.8037 13.8346 23.4747 12.5099C23.2493 11.0399 23.0802 9.5699 22.7843 8.1099C22.2911 5.6699 21.3752 3.3899 21.8261 0.9199C21.8261 0.7799 21.4598 0.7599 21.347 0.8699C19.4448 2.8699 21.0652 5.6099 21.347 7.7099C21.7838 10.6299 21.7416 13.6099 22.4743 16.5199C22.5447 16.7299 23.2915 16.7899 23.4043 16.5099Z" fill="#FF71A8"/>
<path d="M30.3369 17.2599C30.7312 15.8016 30.7599 14.3053 30.4214 12.8399C30.2101 11.2299 30.041 9.6099 29.7451 8.0099C29.266 5.3399 28.4206 2.8299 28.8151 0.129895C28.8151 -0.020105 28.4487 -0.050105 28.336 0.069895C26.4197 2.2699 28.0401 5.2599 28.336 7.5599C28.7587 10.7699 28.7165 14.0299 29.4351 17.2199C29.5055 17.4999 30.2241 17.5699 30.3369 17.2599Z" fill="#FF71A8"/>
</g>
<g clip-path="url(#clip1_173_17482)">
<path d="M39.0165 17.2099C39.3548 15.7565 39.3548 14.2734 39.0165 12.82C38.8052 11.2299 38.6643 9.61995 38.4247 8.02995C38.0443 5.37995 37.2975 2.84995 37.9034 0.179951C37.9034 0.0299508 37.5511 -0.0100492 37.4243 0.109951C35.353 2.22995 36.8043 5.27995 37.0439 7.55995C37.1566 10.78 37.5088 13.99 38.0725 17.18C38.1852 17.46 38.9038 17.5199 39.0165 17.2099Z" fill="#FF71A8"/>
<path d="M45.484 16.4498C45.9783 15.1472 46.117 13.7895 45.8926 12.4498C45.794 10.9998 45.7376 9.53984 45.5686 8.08984C45.2727 5.66984 44.6245 3.37984 45.2163 0.95984C45.2163 0.82984 44.864 0.78984 44.7513 0.88984C42.6659 2.80984 44.0609 5.55984 44.2018 7.63984C44.399 10.5298 44.1031 13.4698 44.5963 16.3698C44.6386 16.6398 45.3572 16.7298 45.484 16.4498Z" fill="#FF71A8"/>
<path d="M52.6843 16.11C53.1442 14.8636 53.2401 13.5636 52.9661 12.29C52.8252 10.9 52.7265 9.50995 52.5011 8.11995C52.1347 5.80995 51.402 3.63995 51.9234 1.30995C51.9234 1.17995 51.557 1.14995 51.4443 1.24995C49.4294 3.11995 50.923 5.72995 51.1202 7.70995C51.4161 10.48 51.2189 13.3 51.7966 16.06C51.8529 16.3 52.5715 16.38 52.6843 16.11Z" fill="#FF71A8"/>
<path d="M60.0395 16.5099C60.4151 15.1914 60.439 13.8346 60.11 12.5099C59.8845 11.0399 59.7154 9.5699 59.4195 8.1099C58.9264 5.6699 58.0105 3.3899 58.4614 0.9199C58.4614 0.7799 58.095 0.7599 57.9823 0.8699C56.0801 2.8699 57.7005 5.6099 57.9823 7.7099C58.4191 10.6299 58.3768 13.6099 59.1095 16.5199C59.18 16.7299 59.9268 16.7899 60.0395 16.5099Z" fill="#FF71A8"/>
<path d="M66.9721 17.2599C67.3665 15.8016 67.3951 14.3053 67.0567 12.8399C66.8453 11.2299 66.6762 9.6099 66.3803 8.0099C65.9012 5.3399 65.0558 2.8299 65.4503 0.129895C65.4503 -0.020105 65.084 -0.050105 64.9713 0.069895C63.055 2.2699 64.6754 5.2599 64.9713 7.5599C65.394 10.7699 65.3517 14.0299 66.0703 17.2199C66.1408 17.4999 66.8594 17.5699 66.9721 17.2599Z" fill="#FF71A8"/>
</g>
<g clip-path="url(#clip2_173_17482)">
<path d="M75.652 17.2099C75.9903 15.7565 75.9903 14.2734 75.652 12.82C75.4407 11.2299 75.2998 9.61995 75.0602 8.02995C74.6798 5.37995 73.933 2.84995 74.5389 0.179951C74.5389 0.0299508 74.1866 -0.0100492 74.0598 0.109951C71.9885 2.22995 73.4398 5.27995 73.6794 7.55995C73.7921 10.78 74.1443 13.99 74.708 17.18C74.8207 17.46 75.5393 17.5199 75.652 17.2099Z" fill="#FF71A8"/>
<path d="M82.1195 16.4498C82.6138 15.1472 82.7525 13.7895 82.5281 12.4498C82.4295 10.9998 82.3731 9.53984 82.2041 8.08984C81.9082 5.66984 81.26 3.37984 81.8518 0.95984C81.8518 0.82984 81.4995 0.78984 81.3868 0.88984C79.3014 2.80984 80.6964 5.55984 80.8373 7.63984C81.0345 10.5298 80.7386 13.4698 81.2318 16.3698C81.2741 16.6398 81.9927 16.7298 82.1195 16.4498Z" fill="#FF71A8"/>
<path d="M89.3198 16.11C89.7797 14.8636 89.8756 13.5636 89.6016 12.29C89.4607 10.9 89.362 9.50995 89.1366 8.11995C88.7702 5.80995 88.0375 3.63995 88.5589 1.30995C88.5589 1.17995 88.1925 1.14995 88.0798 1.24995C86.0649 3.11995 87.5585 5.72995 87.7557 7.70995C88.0516 10.48 87.8544 13.3 88.4321 16.06C88.4884 16.3 89.207 16.38 89.3198 16.11Z" fill="#FF71A8"/>
<path d="M96.675 16.5099C97.0506 15.1914 97.0745 13.8346 96.7455 12.5099C96.52 11.0399 96.3509 9.5699 96.055 8.1099C95.5619 5.6699 94.646 3.3899 95.0969 0.9199C95.0969 0.7799 94.7305 0.7599 94.6178 0.8699C92.7156 2.8699 94.336 5.6099 94.6178 7.7099C95.0546 10.6299 95.0123 13.6099 95.745 16.5199C95.8155 16.7299 96.5623 16.7899 96.675 16.5099Z" fill="#FF71A8"/>
<path d="M103.608 17.2599C104.002 15.8016 104.031 14.3053 103.692 12.8399C103.481 11.2299 103.312 9.6099 103.016 8.0099C102.537 5.3399 101.691 2.8299 102.086 0.129895C102.086 -0.020105 101.719 -0.050105 101.607 0.069895C99.6905 2.2699 101.311 5.2599 101.607 7.5599C102.029 10.7699 101.987 14.0299 102.706 17.2199C102.776 17.4999 103.495 17.5699 103.608 17.2599Z" fill="#FF71A8"/>
</g>
<g clip-path="url(#clip3_173_17482)">
<path d="M112.287 17.2099C112.626 15.7565 112.626 14.2734 112.287 12.82C112.076 11.2299 111.935 9.61995 111.695 8.02995C111.315 5.37995 110.568 2.84995 111.174 0.179951C111.174 0.0299508 110.822 -0.0100492 110.695 0.109951C108.624 2.22995 110.075 5.27995 110.315 7.55995C110.427 10.78 110.78 13.99 111.343 17.18C111.456 17.46 112.175 17.5199 112.287 17.2099Z" fill="#FF71A8"/>
<path d="M118.755 16.4498C119.249 15.1472 119.388 13.7895 119.163 12.4498C119.065 10.9998 119.008 9.53984 118.839 8.08984C118.543 5.66984 117.895 3.37984 118.487 0.95984C118.487 0.82984 118.135 0.78984 118.022 0.88984C115.937 2.80984 117.332 5.55984 117.473 7.63984C117.67 10.5298 117.374 13.4698 117.867 16.3698C117.909 16.6398 118.628 16.7298 118.755 16.4498Z" fill="#FF71A8"/>
<path d="M125.955 16.11C126.415 14.8636 126.511 13.5636 126.237 12.29C126.096 10.9 125.997 9.50995 125.772 8.11995C125.405 5.80995 124.673 3.63995 125.194 1.30995C125.194 1.17995 124.828 1.14995 124.715 1.24995C122.7 3.11995 124.194 5.72995 124.391 7.70995C124.687 10.48 124.49 13.3 125.067 16.06C125.124 16.3 125.842 16.38 125.955 16.11Z" fill="#FF71A8"/>
<path d="M133.31 16.5099C133.686 15.1914 133.71 13.8346 133.381 12.5099C133.155 11.0399 132.986 9.5699 132.69 8.1099C132.197 5.6699 131.281 3.3899 131.732 0.9199C131.732 0.7799 131.366 0.7599 131.253 0.8699C129.351 2.8699 130.971 5.6099 131.253 7.7099C131.69 10.6299 131.648 13.6099 132.38 16.5199C132.451 16.7299 133.198 16.7899 133.31 16.5099Z" fill="#FF71A8"/>
<path d="M140.243 17.2599C140.637 15.8016 140.666 14.3053 140.327 12.8399C140.116 11.2299 139.947 9.6099 139.651 8.0099C139.172 5.3399 138.327 2.8299 138.721 0.129895C138.721 -0.020105 138.355 -0.050105 138.242 0.069895C136.326 2.2699 137.946 5.2599 138.242 7.5599C138.665 10.7699 138.622 14.0299 139.341 17.2199C139.412 17.4999 140.13 17.5699 140.243 17.2599Z" fill="#FF71A8"/>
</g>
<g clip-path="url(#clip4_173_17482)">
<path d="M148.923 17.2099C149.261 15.7565 149.261 14.2734 148.923 12.82C148.711 11.2299 148.571 9.61995 148.331 8.02995C147.951 5.37995 147.204 2.84995 147.81 0.179951C147.81 0.0299508 147.457 -0.0100492 147.331 0.109951C145.259 2.22995 146.711 5.27995 146.95 7.55995C147.063 10.78 147.415 13.99 147.979 17.18C148.091 17.46 148.81 17.5199 148.923 17.2099Z" fill="#FF71A8"/>
<path d="M155.39 16.4498C155.885 15.1472 156.023 13.7895 155.799 12.4498C155.7 10.9998 155.644 9.53984 155.475 8.08984C155.179 5.66984 154.531 3.37984 155.123 0.95984C155.123 0.82984 154.77 0.78984 154.658 0.88984C152.572 2.80984 153.967 5.55984 154.108 7.63984C154.305 10.5298 154.009 13.4698 154.503 16.3698C154.545 16.6398 155.263 16.7298 155.39 16.4498Z" fill="#FF71A8"/>
<path d="M162.591 16.11C163.05 14.8636 163.146 13.5636 162.872 12.29C162.731 10.9 162.633 9.50995 162.407 8.11995C162.041 5.80995 161.308 3.63995 161.83 1.30995C161.83 1.17995 161.463 1.14995 161.351 1.24995C159.336 3.11995 160.829 5.72995 161.026 7.70995C161.322 10.48 161.125 13.3 161.703 16.06C161.759 16.3 162.478 16.38 162.591 16.11Z" fill="#FF71A8"/>
<path d="M169.946 16.5099C170.321 15.1914 170.345 13.8346 170.016 12.5099C169.791 11.0399 169.622 9.5699 169.326 8.1099C168.833 5.6699 167.917 3.3899 168.368 0.9199C168.368 0.7799 168.001 0.7599 167.889 0.8699C165.986 2.8699 167.607 5.6099 167.889 7.7099C168.325 10.6299 168.283 13.6099 169.016 16.5199C169.086 16.7299 169.833 16.7899 169.946 16.5099Z" fill="#FF71A8"/>
<path d="M176.878 17.2599C177.273 15.8016 177.301 14.3053 176.963 12.8399C176.752 11.2299 176.582 9.6099 176.287 8.0099C175.807 5.3399 174.962 2.8299 175.357 0.129895C175.357 -0.020105 174.99 -0.050105 174.878 0.069895C172.961 2.2699 174.582 5.2599 174.878 7.5599C175.3 10.7699 175.258 14.0299 175.977 17.2199C176.047 17.4999 176.766 17.5699 176.878 17.2599Z" fill="#FF71A8"/>
</g>
<g clip-path="url(#clip5_173_17482)">
<path d="M185.558 17.2099C185.896 15.7565 185.896 14.2734 185.558 12.82C185.347 11.2299 185.206 9.61995 184.966 8.02995C184.586 5.37995 183.839 2.84995 184.445 0.179951C184.445 0.0299508 184.093 -0.0100492 183.966 0.109951C181.894 2.22995 183.346 5.27995 183.585 7.55995C183.698 10.78 184.05 13.99 184.614 17.18C184.727 17.46 185.445 17.5199 185.558 17.2099Z" fill="#FF71A8"/>
<path d="M192.026 16.4498C192.52 15.1472 192.659 13.7895 192.434 12.4498C192.336 10.9998 192.279 9.53984 192.11 8.08984C191.814 5.66984 191.166 3.37984 191.758 0.95984C191.758 0.82984 191.406 0.78984 191.293 0.88984C189.207 2.80984 190.602 5.55984 190.743 7.63984C190.941 10.5298 190.645 13.4698 191.138 16.3698C191.18 16.6398 191.899 16.7298 192.026 16.4498Z" fill="#FF71A8"/>
<path d="M199.226 16.11C199.686 14.8636 199.782 13.5636 199.508 12.29C199.367 10.9 199.268 9.50995 199.043 8.11995C198.676 5.80995 197.944 3.63995 198.465 1.30995C198.465 1.17995 198.099 1.14995 197.986 1.24995C195.971 3.11995 197.464 5.72995 197.662 7.70995C197.958 10.48 197.76 13.3 198.338 16.06C198.394 16.3 199.113 16.38 199.226 16.11Z" fill="#FF71A8"/>
<path d="M206.581 16.5099C206.957 15.1914 206.98 13.8346 206.651 12.5099C206.426 11.0399 206.257 9.5699 205.961 8.1099C205.468 5.6699 204.552 3.3899 205.003 0.9199C205.003 0.7799 204.637 0.7599 204.524 0.8699C202.622 2.8699 204.242 5.6099 204.524 7.7099C204.961 10.6299 204.918 13.6099 205.651 16.5199C205.721 16.7299 206.468 16.7899 206.581 16.5099Z" fill="#FF71A8"/>
<path d="M213.514 17.2599C213.908 15.8016 213.937 14.3053 213.598 12.8399C213.387 11.2299 213.218 9.6099 212.922 8.0099C212.443 5.3399 211.597 2.8299 211.992 0.129895C211.992 -0.020105 211.625 -0.050105 211.513 0.069895C209.596 2.2699 211.217 5.2599 211.513 7.5599C211.935 10.7699 211.893 14.0299 212.612 17.2199C212.682 17.4999 213.401 17.5699 213.514 17.2599Z" fill="#FF71A8"/>
</g>
<g clip-path="url(#clip6_173_17482)">
<path d="M222.193 17.2099C222.532 15.7565 222.532 14.2734 222.193 12.82C221.982 11.2299 221.841 9.61995 221.601 8.02995C221.221 5.37995 220.474 2.84995 221.08 0.179951C221.08 0.0299508 220.728 -0.0100492 220.601 0.109951C218.53 2.22995 219.981 5.27995 220.221 7.55995C220.333 10.78 220.686 13.99 221.249 17.18C221.362 17.46 222.081 17.5199 222.193 17.2099Z" fill="#FF71A8"/>
<path d="M228.661 16.4498C229.155 15.1472 229.294 13.7895 229.069 12.4498C228.971 10.9998 228.914 9.53984 228.745 8.08984C228.449 5.66984 227.801 3.37984 228.393 0.95984C228.393 0.82984 228.041 0.78984 227.928 0.88984C225.843 2.80984 227.238 5.55984 227.379 7.63984C227.576 10.5298 227.28 13.4698 227.773 16.3698C227.815 16.6398 228.534 16.7298 228.661 16.4498Z" fill="#FF71A8"/>
<path d="M235.861 16.11C236.321 14.8636 236.417 13.5636 236.143 12.29C236.002 10.9 235.903 9.50995 235.678 8.11995C235.311 5.80995 234.579 3.63995 235.1 1.30995C235.1 1.17995 234.734 1.14995 234.621 1.24995C232.606 3.11995 234.1 5.72995 234.297 7.70995C234.593 10.48 234.396 13.3 234.973 16.06C235.03 16.3 235.748 16.38 235.861 16.11Z" fill="#FF71A8"/>
<path d="M243.216 16.5099C243.592 15.1914 243.616 13.8346 243.287 12.5099C243.061 11.0399 242.892 9.5699 242.596 8.1099C242.103 5.6699 241.187 3.3899 241.638 0.9199C241.638 0.7799 241.272 0.7599 241.159 0.8699C239.257 2.8699 240.877 5.6099 241.159 7.7099C241.596 10.6299 241.554 13.6099 242.286 16.5199C242.357 16.7299 243.104 16.7899 243.216 16.5099Z" fill="#FF71A8"/>
<path d="M250.149 17.2599C250.543 15.8016 250.572 14.3053 250.233 12.8399C250.022 11.2299 249.853 9.6099 249.557 8.0099C249.078 5.3399 248.233 2.8299 248.627 0.129895C248.627 -0.020105 248.261 -0.050105 248.148 0.069895C246.232 2.2699 247.852 5.2599 248.148 7.5599C248.571 10.7699 248.528 14.0299 249.247 17.2199C249.318 17.4999 250.036 17.5699 250.149 17.2599Z" fill="#FF71A8"/>
</g>
<g clip-path="url(#clip7_173_17482)">
<path d="M258.829 17.2099C259.167 15.7565 259.167 14.2734 258.829 12.82C258.617 11.2299 258.477 9.61995 258.237 8.02995C257.857 5.37995 257.11 2.84995 257.716 0.179951C257.716 0.0299508 257.363 -0.0100492 257.237 0.109951C255.165 2.22995 256.617 5.27995 256.856 7.55995C256.969 10.78 257.321 13.99 257.885 17.18C257.997 17.46 258.716 17.5199 258.829 17.2099Z" fill="#FF71A8"/>
<path d="M265.296 16.4498C265.791 15.1472 265.929 13.7895 265.705 12.4498C265.606 10.9998 265.55 9.53984 265.381 8.08984C265.085 5.66984 264.437 3.37984 265.029 0.95984C265.029 0.82984 264.676 0.78984 264.564 0.88984C262.478 2.80984 263.873 5.55984 264.014 7.63984C264.211 10.5298 263.915 13.4698 264.409 16.3698C264.451 16.6398 265.169 16.7298 265.296 16.4498Z" fill="#FF71A8"/>
<path d="M272.497 16.11C272.956 14.8636 273.052 13.5636 272.778 12.29C272.637 10.9 272.539 9.50995 272.313 8.11995C271.947 5.80995 271.214 3.63995 271.736 1.30995C271.736 1.17995 271.369 1.14995 271.257 1.24995C269.242 3.11995 270.735 5.72995 270.932 7.70995C271.228 10.48 271.031 13.3 271.609 16.06C271.665 16.3 272.384 16.38 272.497 16.11Z" fill="#FF71A8"/>
<path d="M279.852 16.5099C280.227 15.1914 280.251 13.8346 279.922 12.5099C279.697 11.0399 279.528 9.5699 279.232 8.1099C278.739 5.6699 277.823 3.3899 278.274 0.9199C278.274 0.7799 277.907 0.7599 277.795 0.8699C275.892 2.8699 277.513 5.6099 277.795 7.7099C278.231 10.6299 278.189 13.6099 278.922 16.5199C278.992 16.7299 279.739 16.7899 279.852 16.5099Z" fill="#FF71A8"/>
<path d="M286.784 17.2599C287.179 15.8016 287.207 14.3053 286.869 12.8399C286.658 11.2299 286.488 9.6099 286.193 8.0099C285.714 5.3399 284.868 2.8299 285.263 0.129895C285.263 -0.020105 284.896 -0.050105 284.784 0.069895C282.867 2.2699 284.488 5.2599 284.784 7.5599C285.206 10.7699 285.164 14.0299 285.883 17.2199C285.953 17.4999 286.672 17.5699 286.784 17.2599Z" fill="#FF71A8"/>
</g>
<g clip-path="url(#clip8_173_17482)">
<path d="M295.464 17.2099C295.802 15.7565 295.802 14.2734 295.464 12.82C295.253 11.2299 295.112 9.61995 294.872 8.02995C294.492 5.37995 293.745 2.84995 294.351 0.179951C294.351 0.0299508 293.999 -0.0100492 293.872 0.109951C291.801 2.22995 293.252 5.27995 293.491 7.55995C293.604 10.78 293.956 13.99 294.52 17.18C294.633 17.46 295.351 17.5199 295.464 17.2099Z" fill="#FF71A8"/>
<path d="M301.932 16.4498C302.426 15.1472 302.565 13.7895 302.34 12.4498C302.242 10.9998 302.185 9.53984 302.016 8.08984C301.72 5.66984 301.072 3.37984 301.664 0.95984C301.664 0.82984 301.312 0.78984 301.199 0.88984C299.113 2.80984 300.508 5.55984 300.649 7.63984C300.847 10.5298 300.551 13.4698 301.044 16.3698C301.086 16.6398 301.805 16.7298 301.932 16.4498Z" fill="#FF71A8"/>
<path d="M309.132 16.11C309.592 14.8636 309.688 13.5636 309.414 12.29C309.273 10.9 309.174 9.50995 308.949 8.11995C308.582 5.80995 307.85 3.63995 308.371 1.30995C308.371 1.17995 308.005 1.14995 307.892 1.24995C305.877 3.11995 307.37 5.72995 307.568 7.70995C307.864 10.48 307.666 13.3 308.244 16.06C308.3 16.3 309.019 16.38 309.132 16.11Z" fill="#FF71A8"/>
<path d="M316.487 16.5099C316.863 15.1914 316.886 13.8346 316.557 12.5099C316.332 11.0399 316.163 9.5699 315.867 8.1099C315.374 5.6699 314.458 3.3899 314.909 0.9199C314.909 0.7799 314.543 0.7599 314.43 0.8699C312.528 2.8699 314.148 5.6099 314.43 7.7099C314.867 10.6299 314.824 13.6099 315.557 16.5199C315.627 16.7299 316.374 16.7899 316.487 16.5099Z" fill="#FF71A8"/>
<path d="M323.42 17.2599C323.814 15.8016 323.843 14.3053 323.504 12.8399C323.293 11.2299 323.124 9.6099 322.828 8.0099C322.349 5.3399 321.503 2.8299 321.898 0.129895C321.898 -0.020105 321.532 -0.050105 321.419 0.069895C319.502 2.2699 321.123 5.2599 321.419 7.5599C321.841 10.7699 321.799 14.0299 322.518 17.2199C322.588 17.4999 323.307 17.5699 323.42 17.2599Z" fill="#FF71A8"/>
</g>
<g clip-path="url(#clip9_173_17482)">
<path d="M332.1 17.2099C332.438 15.7565 332.438 14.2734 332.1 12.82C331.888 11.2299 331.747 9.61995 331.508 8.02995C331.127 5.37995 330.38 2.84995 330.986 0.179951C330.986 0.0299508 330.634 -0.0100492 330.507 0.109951C328.436 2.22995 329.887 5.27995 330.127 7.55995C330.24 10.78 330.592 13.99 331.155 17.18C331.268 17.46 331.987 17.5199 332.1 17.2099Z" fill="#FF71A8"/>
<path d="M338.567 16.4498C339.061 15.1472 339.2 13.7895 338.976 12.4498C338.877 10.9998 338.821 9.53984 338.652 8.08984C338.356 5.66984 337.708 3.37984 338.299 0.95984C338.299 0.82984 337.947 0.78984 337.834 0.88984C335.749 2.80984 337.144 5.55984 337.285 7.63984C337.482 10.5298 337.186 13.4698 337.679 16.3698C337.722 16.6398 338.44 16.7298 338.567 16.4498Z" fill="#FF71A8"/>
<path d="M345.767 16.11C346.227 14.8636 346.323 13.5636 346.049 12.29C345.908 10.9 345.81 9.50995 345.584 8.11995C345.218 5.80995 344.485 3.63995 345.006 1.30995C345.006 1.17995 344.64 1.14995 344.527 1.24995C342.512 3.11995 344.006 5.72995 344.203 7.70995C344.499 10.48 344.302 13.3 344.88 16.06C344.936 16.3 345.655 16.38 345.767 16.11Z" fill="#FF71A8"/>
<path d="M353.123 16.5099C353.498 15.1914 353.522 13.8346 353.193 12.5099C352.968 11.0399 352.798 9.5699 352.503 8.1099C352.009 5.6699 351.093 3.3899 351.544 0.9199C351.544 0.7799 351.178 0.7599 351.065 0.8699C349.163 2.8699 350.783 5.6099 351.065 7.7099C351.502 10.6299 351.46 13.6099 352.193 16.5199C352.263 16.7299 353.01 16.7899 353.123 16.5099Z" fill="#FF71A8"/>
<path d="M360.055 17.2599C360.45 15.8016 360.478 14.3053 360.14 12.8399C359.928 11.2299 359.759 9.6099 359.463 8.0099C358.984 5.3399 358.139 2.8299 358.533 0.129895C358.533 -0.020105 358.167 -0.050105 358.054 0.069895C356.138 2.2699 357.758 5.2599 358.054 7.5599C358.477 10.7699 358.435 14.0299 359.153 17.2199C359.224 17.4999 359.942 17.5699 360.055 17.2599Z" fill="#FF71A8"/>
</g>
<g clip-path="url(#clip10_173_17482)">
<path d="M368.735 17.2099C369.073 15.7565 369.073 14.2734 368.735 12.82C368.523 11.2299 368.383 9.61995 368.143 8.02995C367.763 5.37995 367.016 2.84995 367.622 0.179951C367.622 0.0299508 367.269 -0.0100492 367.143 0.109951C365.071 2.22995 366.523 5.27995 366.762 7.55995C366.875 10.78 367.227 13.99 367.791 17.18C367.903 17.46 368.622 17.5199 368.735 17.2099Z" fill="#FF71A8"/>
<path d="M375.202 16.4498C375.697 15.1472 375.835 13.7895 375.611 12.4498C375.512 10.9998 375.456 9.53984 375.287 8.08984C374.991 5.66984 374.343 3.37984 374.935 0.95984C374.935 0.82984 374.582 0.78984 374.47 0.88984C372.384 2.80984 373.779 5.55984 373.92 7.63984C374.117 10.5298 373.821 13.4698 374.315 16.3698C374.357 16.6398 375.075 16.7298 375.202 16.4498Z" fill="#FF71A8"/>
<path d="M382.403 16.11C382.862 14.8636 382.958 13.5636 382.684 12.29C382.543 10.9 382.445 9.50995 382.219 8.11995C381.853 5.80995 381.12 3.63995 381.642 1.30995C381.642 1.17995 381.275 1.14995 381.163 1.24995C379.148 3.11995 380.641 5.72995 380.838 7.70995C381.134 10.48 380.937 13.3 381.515 16.06C381.571 16.3 382.29 16.38 382.403 16.11Z" fill="#FF71A8"/>
<path d="M389.758 16.5099C390.133 15.1914 390.157 13.8346 389.828 12.5099C389.603 11.0399 389.434 9.5699 389.138 8.1099C388.645 5.6699 387.729 3.3899 388.18 0.9199C388.18 0.7799 387.813 0.7599 387.701 0.8699C385.798 2.8699 387.419 5.6099 387.701 7.7099C388.137 10.6299 388.095 13.6099 388.828 16.5199C388.898 16.7299 389.645 16.7899 389.758 16.5099Z" fill="#FF71A8"/>
<path d="M396.69 17.2599C397.085 15.8016 397.113 14.3053 396.775 12.8399C396.564 11.2299 396.394 9.6099 396.099 8.0099C395.62 5.3399 394.774 2.8299 395.169 0.129895C395.169 -0.020105 394.802 -0.050105 394.69 0.069895C392.773 2.2699 394.394 5.2599 394.69 7.5599C395.112 10.7699 395.07 14.0299 395.789 17.2199C395.859 17.4999 396.578 17.5699 396.69 17.2599Z" fill="#FF71A8"/>
</g>
<g clip-path="url(#clip11_173_17482)">
<path d="M405.37 17.2099C405.708 15.7565 405.708 14.2734 405.37 12.82C405.159 11.2299 405.018 9.61995 404.778 8.02995C404.398 5.37995 403.651 2.84995 404.257 0.179951C404.257 0.0299508 403.905 -0.0100492 403.778 0.109951C401.707 2.22995 403.158 5.27995 403.397 7.55995C403.51 10.78 403.862 13.99 404.426 17.18C404.539 17.46 405.257 17.5199 405.37 17.2099Z" fill="#FF71A8"/>
<path d="M411.838 16.4498C412.332 15.1472 412.471 13.7895 412.246 12.4498C412.148 10.9998 412.091 9.53984 411.922 8.08984C411.626 5.66984 410.978 3.37984 411.57 0.95984C411.57 0.82984 411.218 0.78984 411.105 0.88984C409.02 2.80984 410.415 5.55984 410.555 7.63984C410.753 10.5298 410.457 13.4698 410.95 16.3698C410.992 16.6398 411.711 16.7298 411.838 16.4498Z" fill="#FF71A8"/>
<path d="M419.038 16.11C419.498 14.8636 419.594 13.5636 419.32 12.29C419.179 10.9 419.08 9.50995 418.855 8.11995C418.488 5.80995 417.756 3.63995 418.277 1.30995C418.277 1.17995 417.911 1.14995 417.798 1.24995C415.783 3.11995 417.277 5.72995 417.474 7.70995C417.77 10.48 417.572 13.3 418.15 16.06C418.207 16.3 418.925 16.38 419.038 16.11Z" fill="#FF71A8"/>
<path d="M426.393 16.5099C426.769 15.1914 426.793 13.8346 426.464 12.5099C426.238 11.0399 426.069 9.5699 425.773 8.1099C425.28 5.6699 424.364 3.3899 424.815 0.9199C424.815 0.7799 424.449 0.7599 424.336 0.8699C422.434 2.8699 424.054 5.6099 424.336 7.7099C424.773 10.6299 424.73 13.6099 425.463 16.5199C425.534 16.7299 426.28 16.7899 426.393 16.5099Z" fill="#FF71A8"/>
<path d="M433.326 17.2599C433.72 15.8016 433.749 14.3053 433.41 12.8399C433.199 11.2299 433.03 9.6099 432.734 8.0099C432.255 5.3399 431.409 2.8299 431.804 0.129895C431.804 -0.020105 431.438 -0.050105 431.325 0.069895C429.409 2.2699 431.029 5.2599 431.325 7.5599C431.748 10.7699 431.705 14.0299 432.424 17.2199C432.494 17.4999 433.213 17.5699 433.326 17.2599Z" fill="#FF71A8"/>
</g>
<g clip-path="url(#clip12_173_17482)">
<path d="M442.006 17.2099C442.344 15.7565 442.344 14.2734 442.006 12.82C441.794 11.2299 441.653 9.61995 441.414 8.02995C441.033 5.37995 440.286 2.84995 440.892 0.179951C440.892 0.0299508 440.54 -0.0100492 440.413 0.109951C438.342 2.22995 439.793 5.27995 440.033 7.55995C440.146 10.78 440.498 13.99 441.061 17.18C441.174 17.46 441.893 17.5199 442.006 17.2099Z" fill="#FF71A8"/>
<path d="M448.473 16.4498C448.967 15.1472 449.106 13.7895 448.882 12.4498C448.783 10.9998 448.727 9.53984 448.558 8.08984C448.262 5.66984 447.614 3.37984 448.205 0.95984C448.205 0.82984 447.853 0.78984 447.74 0.88984C445.655 2.80984 447.05 5.55984 447.191 7.63984C447.388 10.5298 447.092 13.4698 447.585 16.3698C447.628 16.6398 448.346 16.7298 448.473 16.4498Z" fill="#FF71A8"/>
<path d="M455.673 16.11C456.133 14.8636 456.229 13.5636 455.955 12.29C455.814 10.9 455.716 9.50995 455.49 8.11995C455.124 5.80995 454.391 3.63995 454.912 1.30995C454.912 1.17995 454.546 1.14995 454.433 1.24995C452.418 3.11995 453.912 5.72995 454.109 7.70995C454.405 10.48 454.208 13.3 454.786 16.06C454.842 16.3 455.561 16.38 455.673 16.11Z" fill="#FF71A8"/>
<path d="M463.029 16.5099C463.404 15.1914 463.428 13.8346 463.099 12.5099C462.874 11.0399 462.704 9.5699 462.409 8.1099C461.915 5.6699 460.999 3.3899 461.45 0.9199C461.45 0.7799 461.084 0.7599 460.971 0.8699C459.069 2.8699 460.689 5.6099 460.971 7.7099C461.408 10.6299 461.366 13.6099 462.099 16.5199C462.169 16.7299 462.916 16.7899 463.029 16.5099Z" fill="#FF71A8"/>
<path d="M469.961 17.2599C470.356 15.8016 470.384 14.3053 470.046 12.8399C469.834 11.2299 469.665 9.6099 469.369 8.0099C468.89 5.3399 468.045 2.8299 468.439 0.129895C468.439 -0.020105 468.073 -0.050105 467.96 0.069895C466.044 2.2699 467.664 5.2599 467.96 7.5599C468.383 10.7699 468.341 14.0299 469.059 17.2199C469.13 17.4999 469.848 17.5699 469.961 17.2599Z" fill="#FF71A8"/>
</g>
<g clip-path="url(#clip13_173_17482)">
<path d="M478.641 17.2099C478.979 15.7565 478.979 14.2734 478.641 12.82C478.43 11.2299 478.289 9.61995 478.049 8.02995C477.669 5.37995 476.922 2.84995 477.528 0.179951C477.528 0.0299508 477.176 -0.0100492 477.049 0.109951C474.978 2.22995 476.429 5.27995 476.668 7.55995C476.781 10.78 477.133 13.99 477.697 17.18C477.81 17.46 478.528 17.5199 478.641 17.2099Z" fill="#FF71A8"/>
<path d="M485.109 16.4498C485.603 15.1472 485.742 13.7895 485.517 12.4498C485.419 10.9998 485.362 9.53984 485.193 8.08984C484.897 5.66984 484.249 3.37984 484.841 0.95984C484.841 0.82984 484.489 0.78984 484.376 0.88984C482.29 2.80984 483.685 5.55984 483.826 7.63984C484.024 10.5298 483.728 13.4698 484.221 16.3698C484.263 16.6398 484.982 16.7298 485.109 16.4498Z" fill="#FF71A8"/>
<path d="M492.309 16.11C492.769 14.8636 492.865 13.5636 492.591 12.29C492.45 10.9 492.351 9.50995 492.126 8.11995C491.759 5.80995 491.027 3.63995 491.548 1.30995C491.548 1.17995 491.182 1.14995 491.069 1.24995C489.054 3.11995 490.547 5.72995 490.745 7.70995C491.041 10.48 490.843 13.3 491.421 16.06C491.477 16.3 492.196 16.38 492.309 16.11Z" fill="#FF71A8"/>
<path d="M499.664 16.5099C500.04 15.1914 500.063 13.8346 499.734 12.5099C499.509 11.0399 499.34 9.5699 499.044 8.1099C498.551 5.6699 497.635 3.3899 498.086 0.9199C498.086 0.7799 497.72 0.7599 497.607 0.8699C495.705 2.8699 497.325 5.6099 497.607 7.7099C498.044 10.6299 498.001 13.6099 498.734 16.5199C498.804 16.7299 499.551 16.7899 499.664 16.5099Z" fill="#FF71A8"/>
<path d="M506.597 17.2599C506.991 15.8016 507.02 14.3053 506.681 12.8399C506.47 11.2299 506.301 9.6099 506.005 8.0099C505.526 5.3399 504.68 2.8299 505.075 0.129895C505.075 -0.020105 504.709 -0.050105 504.596 0.069895C502.679 2.2699 504.3 5.2599 504.596 7.5599C505.018 10.7699 504.976 14.0299 505.695 17.2199C505.765 17.4999 506.484 17.5699 506.597 17.2599Z" fill="#FF71A8"/>
</g>
<g clip-path="url(#clip14_173_17482)">
<path d="M515.276 17.2099C515.615 15.7565 515.615 14.2734 515.276 12.82C515.065 11.2299 514.924 9.61995 514.684 8.02995C514.304 5.37995 513.557 2.84995 514.163 0.179951C514.163 0.0299508 513.811 -0.0100492 513.684 0.109951C511.613 2.22995 513.064 5.27995 513.304 7.55995C513.416 10.78 513.769 13.99 514.332 17.18C514.445 17.46 515.164 17.5199 515.276 17.2099Z" fill="#FF71A8"/>
<path d="M521.744 16.4498C522.238 15.1472 522.377 13.7895 522.152 12.4498C522.054 10.9998 521.997 9.53984 521.828 8.08984C521.532 5.66984 520.884 3.37984 521.476 0.95984C521.476 0.82984 521.124 0.78984 521.011 0.88984C518.926 2.80984 520.321 5.55984 520.462 7.63984C520.659 10.5298 520.363 13.4698 520.856 16.3698C520.898 16.6398 521.617 16.7298 521.744 16.4498Z" fill="#FF71A8"/>
<path d="M528.944 16.11C529.404 14.8636 529.5 13.5636 529.226 12.29C529.085 10.9 528.986 9.50995 528.761 8.11995C528.395 5.80995 527.662 3.63995 528.183 1.30995C528.183 1.17995 527.817 1.14995 527.704 1.24995C525.689 3.11995 527.183 5.72995 527.38 7.70995C527.676 10.48 527.479 13.3 528.056 16.06C528.113 16.3 528.831 16.38 528.944 16.11Z" fill="#FF71A8"/>
<path d="M536.299 16.5099C536.675 15.1914 536.699 13.8346 536.37 12.5099C536.144 11.0399 535.975 9.5699 535.679 8.1099C535.186 5.6699 534.27 3.3899 534.721 0.9199C534.721 0.7799 534.355 0.7599 534.242 0.8699C532.34 2.8699 533.96 5.6099 534.242 7.7099C534.679 10.6299 534.637 13.6099 535.369 16.5199C535.44 16.7299 536.187 16.7899 536.299 16.5099Z" fill="#FF71A8"/>
<path d="M543.232 17.2599C543.626 15.8016 543.655 14.3053 543.316 12.8399C543.105 11.2299 542.936 9.6099 542.64 8.0099C542.161 5.3399 541.316 2.8299 541.71 0.129895C541.71 -0.020105 541.344 -0.050105 541.231 0.069895C539.315 2.2699 540.935 5.2599 541.231 7.5599C541.654 10.7699 541.611 14.0299 542.33 17.2199C542.401 17.4999 543.119 17.5699 543.232 17.2599Z" fill="#FF71A8"/>
</g>
<g clip-path="url(#clip15_173_17482)">
<path d="M551.912 17.2099C552.25 15.7565 552.25 14.2734 551.912 12.82C551.7 11.2299 551.56 9.61995 551.32 8.02995C550.94 5.37995 550.193 2.84995 550.799 0.179951C550.799 0.0299508 550.446 -0.0100492 550.32 0.109951C548.248 2.22995 549.7 5.27995 549.939 7.55995C550.052 10.78 550.404 13.99 550.968 17.18C551.08 17.46 551.799 17.5199 551.912 17.2099Z" fill="#FF71A8"/>
<path d="M558.379 16.4498C558.874 15.1472 559.012 13.7895 558.788 12.4498C558.689 10.9998 558.633 9.53984 558.464 8.08984C558.168 5.66984 557.52 3.37984 558.112 0.95984C558.112 0.82984 557.759 0.78984 557.647 0.88984C555.561 2.80984 556.956 5.55984 557.097 7.63984C557.294 10.5298 556.998 13.4698 557.492 16.3698C557.534 16.6398 558.252 16.7298 558.379 16.4498Z" fill="#FF71A8"/>
<path d="M565.58 16.11C566.039 14.8636 566.135 13.5636 565.861 12.29C565.72 10.9 565.622 9.50995 565.396 8.11995C565.03 5.80995 564.297 3.63995 564.819 1.30995C564.819 1.17995 564.452 1.14995 564.34 1.24995C562.325 3.11995 563.818 5.72995 564.015 7.70995C564.311 10.48 564.114 13.3 564.692 16.06C564.748 16.3 565.467 16.38 565.58 16.11Z" fill="#FF71A8"/>
<path d="M572.935 16.5099C573.31 15.1914 573.334 13.8346 573.005 12.5099C572.78 11.0399 572.611 9.5699 572.315 8.1099C571.822 5.6699 570.906 3.3899 571.357 0.9199C571.357 0.7799 570.99 0.7599 570.878 0.8699C568.975 2.8699 570.596 5.6099 570.878 7.7099C571.314 10.6299 571.272 13.6099 572.005 16.5199C572.075 16.7299 572.822 16.7899 572.935 16.5099Z" fill="#FF71A8"/>
<path d="M579.867 17.2599C580.262 15.8016 580.29 14.3053 579.952 12.8399C579.741 11.2299 579.571 9.6099 579.276 8.0099C578.797 5.3399 577.951 2.8299 578.346 0.129895C578.346 -0.020105 577.979 -0.050105 577.867 0.069895C575.95 2.2699 577.571 5.2599 577.867 7.5599C578.289 10.7699 578.247 14.0299 578.966 17.2199C579.036 17.4999 579.755 17.5699 579.867 17.2599Z" fill="#FF71A8"/>
</g>
<g clip-path="url(#clip16_173_17482)">
<path d="M588.547 17.2099C588.885 15.7565 588.885 14.2734 588.547 12.82C588.336 11.2299 588.195 9.61995 587.955 8.02995C587.575 5.37995 586.828 2.84995 587.434 0.179951C587.434 0.0299508 587.082 -0.0100492 586.955 0.109951C584.883 2.22995 586.335 5.27995 586.574 7.55995C586.687 10.78 587.039 13.99 587.603 17.18C587.716 17.46 588.434 17.5199 588.547 17.2099Z" fill="#FF71A8"/>
<path d="M595.014 16.4498C595.509 15.1472 595.647 13.7895 595.423 12.4498C595.324 10.9998 595.268 9.53984 595.099 8.08984C594.803 5.66984 594.155 3.37984 594.747 0.95984C594.747 0.82984 594.394 0.78984 594.282 0.88984C592.196 2.80984 593.591 5.55984 593.732 7.63984C593.929 10.5298 593.634 13.4698 594.127 16.3698C594.169 16.6398 594.888 16.7298 595.014 16.4498Z" fill="#FF71A8"/>
<path d="M602.215 16.11C602.675 14.8636 602.77 13.5636 602.496 12.29C602.356 10.9 602.257 9.50995 602.031 8.11995C601.665 5.80995 600.932 3.63995 601.454 1.30995C601.454 1.17995 601.087 1.14995 600.975 1.24995C598.96 3.11995 600.453 5.72995 600.651 7.70995C600.947 10.48 600.749 13.3 601.327 16.06C601.383 16.3 602.102 16.38 602.215 16.11Z" fill="#FF71A8"/>
<path d="M609.57 16.5099C609.945 15.1914 609.969 13.8346 609.64 12.5099C609.415 11.0399 609.246 9.5699 608.95 8.1099C608.457 5.6699 607.541 3.3899 607.992 0.9199C607.992 0.7799 607.625 0.7599 607.513 0.8699C605.61 2.8699 607.231 5.6099 607.513 7.7099C607.949 10.6299 607.907 13.6099 608.64 16.5199C608.71 16.7299 609.457 16.7899 609.57 16.5099Z" fill="#FF71A8"/>
<path d="M616.503 17.2599C616.897 15.8016 616.926 14.3053 616.587 12.8399C616.376 11.2299 616.207 9.6099 615.911 8.0099C615.432 5.3399 614.586 2.8299 614.981 0.129895C614.981 -0.020105 614.614 -0.050105 614.502 0.069895C612.585 2.2699 614.206 5.2599 614.502 7.5599C614.924 10.7699 614.882 14.0299 615.601 17.2199C615.671 17.4999 616.39 17.5699 616.503 17.2599Z" fill="#FF71A8"/>
</g>
<g clip-path="url(#clip17_173_17482)">
<path d="M625.182 17.2099C625.521 15.7565 625.521 14.2734 625.182 12.82C624.971 11.2299 624.83 9.61995 624.591 8.02995C624.21 5.37995 623.463 2.84995 624.069 0.179951C624.069 0.0299508 623.717 -0.0100492 623.59 0.109951C621.519 2.22995 622.97 5.27995 623.21 7.55995C623.322 10.78 623.675 13.99 624.238 17.18C624.351 17.46 625.07 17.5199 625.182 17.2099Z" fill="#FF71A8"/>
<path d="M631.65 16.4498C632.144 15.1472 632.283 13.7895 632.059 12.4498C631.96 10.9998 631.904 9.53984 631.734 8.08984C631.439 5.66984 630.79 3.37984 631.382 0.95984C631.382 0.82984 631.03 0.78984 630.917 0.88984C628.832 2.80984 630.227 5.55984 630.368 7.63984C630.565 10.5298 630.269 13.4698 630.762 16.3698C630.804 16.6398 631.523 16.7298 631.65 16.4498Z" fill="#FF71A8"/>
<path d="M638.85 16.11C639.31 14.8636 639.406 13.5636 639.132 12.29C638.991 10.9 638.892 9.50995 638.667 8.11995C638.301 5.80995 637.568 3.63995 638.089 1.30995C638.089 1.17995 637.723 1.14995 637.61 1.24995C635.595 3.11995 637.089 5.72995 637.286 7.70995C637.582 10.48 637.385 13.3 637.962 16.06C638.019 16.3 638.737 16.38 638.85 16.11Z" fill="#FF71A8"/>
<path d="M646.205 16.5099C646.581 15.1914 646.605 13.8346 646.276 12.5099C646.05 11.0399 645.881 9.5699 645.585 8.1099C645.092 5.6699 644.176 3.3899 644.627 0.9199C644.627 0.7799 644.261 0.7599 644.148 0.8699C642.246 2.8699 643.866 5.6099 644.148 7.7099C644.585 10.6299 644.543 13.6099 645.275 16.5199C645.346 16.7299 646.093 16.7899 646.205 16.5099Z" fill="#FF71A8"/>
<path d="M653.138 17.2599C653.532 15.8016 653.561 14.3053 653.223 12.8399C653.011 11.2299 652.842 9.6099 652.546 8.0099C652.067 5.3399 651.222 2.8299 651.616 0.129895C651.616 -0.020105 651.25 -0.050105 651.137 0.069895C649.221 2.2699 650.841 5.2599 651.137 7.5599C651.56 10.7699 651.518 14.0299 652.236 17.2199C652.307 17.4999 653.025 17.5699 653.138 17.2599Z" fill="#FF71A8"/>
</g>
<g clip-path="url(#clip18_173_17482)">
<path d="M661.818 17.2099C662.156 15.7565 662.156 14.2734 661.818 12.82C661.606 11.2299 661.465 9.61995 661.226 8.02995C660.845 5.37995 660.099 2.84995 660.704 0.179951C660.704 0.0299508 660.352 -0.0100492 660.225 0.109951C658.154 2.22995 659.605 5.27995 659.845 7.55995C659.958 10.78 660.31 13.99 660.873 17.18C660.986 17.46 661.705 17.5199 661.818 17.2099Z" fill="#FF71A8"/>
<path d="M668.285 16.4498C668.779 15.1472 668.918 13.7895 668.694 12.4498C668.595 10.9998 668.539 9.53984 668.37 8.08984C668.074 5.66984 667.426 3.37984 668.017 0.95984C668.017 0.82984 667.665 0.78984 667.552 0.88984C665.467 2.80984 666.862 5.55984 667.003 7.63984C667.2 10.5298 666.904 13.4698 667.397 16.3698C667.44 16.6398 668.158 16.7298 668.285 16.4498Z" fill="#FF71A8"/>
<path d="M675.485 16.11C675.945 14.8636 676.041 13.5636 675.767 12.29C675.626 10.9 675.528 9.50995 675.302 8.11995C674.936 5.80995 674.203 3.63995 674.724 1.30995C674.724 1.17995 674.358 1.14995 674.245 1.24995C672.23 3.11995 673.724 5.72995 673.921 7.70995C674.217 10.48 674.02 13.3 674.598 16.06C674.654 16.3 675.373 16.38 675.485 16.11Z" fill="#FF71A8"/>
<path d="M682.841 16.5099C683.216 15.1914 683.24 13.8346 682.911 12.5099C682.686 11.0399 682.516 9.5699 682.221 8.1099C681.727 5.6699 680.811 3.3899 681.262 0.9199C681.262 0.7799 680.896 0.7599 680.783 0.8699C678.881 2.8699 680.502 5.6099 680.783 7.7099C681.22 10.6299 681.178 13.6099 681.911 16.5199C681.981 16.7299 682.728 16.7899 682.841 16.5099Z" fill="#FF71A8"/>
<path d="M689.773 17.2599C690.168 15.8016 690.196 14.3053 689.858 12.8399C689.646 11.2299 689.477 9.6099 689.181 8.0099C688.702 5.3399 687.857 2.8299 688.251 0.129895C688.251 -0.020105 687.885 -0.050105 687.772 0.069895C685.856 2.2699 687.476 5.2599 687.772 7.5599C688.195 10.7699 688.153 14.0299 688.871 17.2199C688.942 17.4999 689.66 17.5699 689.773 17.2599Z" fill="#FF71A8"/>
</g>
<g clip-path="url(#clip19_173_17482)">
<path d="M698.453 17.2099C698.791 15.7565 698.791 14.2734 698.453 12.82C698.242 11.2299 698.101 9.61995 697.861 8.02995C697.481 5.37995 696.734 2.84995 697.34 0.179951C697.34 0.0299508 696.988 -0.0100492 696.861 0.109951C694.79 2.22995 696.241 5.27995 696.481 7.55995C696.593 10.78 696.945 13.99 697.509 17.18C697.622 17.46 698.34 17.5199 698.453 17.2099Z" fill="#FF71A8"/>
<path d="M704.921 16.4498C705.415 15.1472 705.554 13.7895 705.329 12.4498C705.231 10.9998 705.174 9.53984 705.005 8.08984C704.709 5.66984 704.061 3.37984 704.653 0.95984C704.653 0.82984 704.301 0.78984 704.188 0.88984C702.103 2.80984 703.498 5.55984 703.638 7.63984C703.836 10.5298 703.54 13.4698 704.033 16.3698C704.075 16.6398 704.794 16.7298 704.921 16.4498Z" fill="#FF71A8"/>
<path d="M712.121 16.11C712.581 14.8636 712.677 13.5636 712.403 12.29C712.262 10.9 712.163 9.50995 711.938 8.11995C711.571 5.80995 710.839 3.63995 711.36 1.30995C711.36 1.17995 710.994 1.14995 710.881 1.24995C708.866 3.11995 710.36 5.72995 710.557 7.70995C710.853 10.48 710.656 13.3 711.233 16.06C711.29 16.3 712.008 16.38 712.121 16.11Z" fill="#FF71A8"/>
<path d="M719.476 16.5099C719.852 15.1914 719.876 13.8346 719.547 12.5099C719.321 11.0399 719.152 9.5699 718.856 8.1099C718.363 5.6699 717.447 3.3899 717.898 0.9199C717.898 0.7799 717.532 0.7599 717.419 0.8699C715.517 2.8699 717.137 5.6099 717.419 7.7099C717.856 10.6299 717.813 13.6099 718.546 16.5199C718.617 16.7299 719.363 16.7899 719.476 16.5099Z" fill="#FF71A8"/>
<path d="M726.409 17.2599C726.803 15.8016 726.832 14.3053 726.493 12.8399C726.282 11.2299 726.113 9.6099 725.817 8.0099C725.338 5.3399 724.492 2.8299 724.887 0.129895C724.887 -0.020105 724.521 -0.050105 724.408 0.069895C722.492 2.2699 724.112 5.2599 724.408 7.5599C724.831 10.7699 724.788 14.0299 725.507 17.2199C725.577 17.4999 726.296 17.5699 726.409 17.2599Z" fill="#FF71A8"/>
</g>
<g clip-path="url(#clip20_173_17482)">
<path d="M735.088 17.2099C735.427 15.7565 735.427 14.2734 735.088 12.82C734.877 11.2299 734.736 9.61995 734.497 8.02995C734.116 5.37995 733.369 2.84995 733.975 0.179951C733.975 0.0299508 733.623 -0.0100492 733.496 0.109951C731.425 2.22995 732.876 5.27995 733.116 7.55995C733.228 10.78 733.581 13.99 734.144 17.18C734.257 17.46 734.976 17.5199 735.088 17.2099Z" fill="#FF71A8"/>
<path d="M741.556 16.4498C742.05 15.1472 742.189 13.7895 741.964 12.4498C741.866 10.9998 741.809 9.53984 741.64 8.08984C741.344 5.66984 740.696 3.37984 741.288 0.95984C741.288 0.82984 740.936 0.78984 740.823 0.88984C738.738 2.80984 740.133 5.55984 740.274 7.63984C740.471 10.5298 740.175 13.4698 740.668 16.3698C740.71 16.6398 741.429 16.7298 741.556 16.4498Z" fill="#FF71A8"/>
<path d="M748.756 16.11C749.216 14.8636 749.312 13.5636 749.038 12.29C748.897 10.9 748.798 9.50995 748.573 8.11995C748.207 5.80995 747.474 3.63995 747.995 1.30995C747.995 1.17995 747.629 1.14995 747.516 1.24995C745.501 3.11995 746.995 5.72995 747.192 7.70995C747.488 10.48 747.291 13.3 747.868 16.06C747.925 16.3 748.643 16.38 748.756 16.11Z" fill="#FF71A8"/>
<path d="M756.111 16.5099C756.487 15.1914 756.511 13.8346 756.182 12.5099C755.956 11.0399 755.787 9.5699 755.491 8.1099C754.998 5.6699 754.082 3.3899 754.533 0.9199C754.533 0.7799 754.167 0.7599 754.054 0.8699C752.152 2.8699 753.772 5.6099 754.054 7.7099C754.491 10.6299 754.449 13.6099 755.181 16.5199C755.252 16.7299 755.999 16.7899 756.111 16.5099Z" fill="#FF71A8"/>
<path d="M763.044 17.2599C763.438 15.8016 763.467 14.3053 763.128 12.8399C762.917 11.2299 762.748 9.6099 762.452 8.0099C761.973 5.3399 761.128 2.8299 761.522 0.129895C761.522 -0.020105 761.156 -0.050105 761.043 0.069895C759.127 2.2699 760.747 5.2599 761.043 7.5599C761.466 10.7699 761.423 14.0299 762.142 17.2199C762.213 17.4999 762.931 17.5699 763.044 17.2599Z" fill="#FF71A8"/>
</g>
<g clip-path="url(#clip21_173_17482)">
<path d="M771.724 17.2099C772.062 15.7565 772.062 14.2734 771.724 12.82C771.513 11.2299 771.372 9.61995 771.132 8.02995C770.752 5.37995 770.005 2.84995 770.611 0.179951C770.611 0.0299508 770.259 -0.0100492 770.132 0.109951C768.06 2.22995 769.512 5.27995 769.751 7.55995C769.864 10.78 770.216 13.99 770.78 17.18C770.893 17.46 771.611 17.5199 771.724 17.2099Z" fill="#FF71A8"/>
<path d="M778.191 16.4498C778.686 15.1472 778.824 13.7895 778.6 12.4498C778.501 10.9998 778.445 9.53984 778.276 8.08984C777.98 5.66984 777.332 3.37984 777.924 0.95984C777.924 0.82984 777.571 0.78984 777.459 0.88984C775.373 2.80984 776.768 5.55984 776.909 7.63984C777.106 10.5298 776.811 13.4698 777.304 16.3698C777.346 16.6398 778.065 16.7298 778.191 16.4498Z" fill="#FF71A8"/>
<path d="M785.392 16.11C785.852 14.8636 785.947 13.5636 785.673 12.29C785.533 10.9 785.434 9.50995 785.208 8.11995C784.842 5.80995 784.109 3.63995 784.631 1.30995C784.631 1.17995 784.264 1.14995 784.152 1.24995C782.137 3.11995 783.63 5.72995 783.828 7.70995C784.124 10.48 783.926 13.3 784.504 16.06C784.56 16.3 785.279 16.38 785.392 16.11Z" fill="#FF71A8"/>
<path d="M792.747 16.5099C793.122 15.1914 793.146 13.8346 792.817 12.5099C792.592 11.0399 792.423 9.5699 792.127 8.1099C791.634 5.6699 790.718 3.3899 791.169 0.9199C791.169 0.7799 790.802 0.7599 790.69 0.8699C788.787 2.8699 790.408 5.6099 790.69 7.7099C791.126 10.6299 791.084 13.6099 791.817 16.5199C791.887 16.7299 792.634 16.7899 792.747 16.5099Z" fill="#FF71A8"/>
<path d="M799.68 17.2599C800.074 15.8016 800.103 14.3053 799.764 12.8399C799.553 11.2299 799.384 9.6099 799.088 8.0099C798.609 5.3399 797.763 2.8299 798.158 0.129895C798.158 -0.020105 797.791 -0.050105 797.679 0.069895C795.762 2.2699 797.383 5.2599 797.679 7.5599C798.101 10.7699 798.059 14.0299 798.778 17.2199C798.848 17.4999 799.567 17.5699 799.68 17.2599Z" fill="#FF71A8"/>
</g>
<g clip-path="url(#clip22_173_17482)">
<path d="M808.359 17.2099C808.697 15.7565 808.697 14.2734 808.359 12.82C808.148 11.2299 808.007 9.61995 807.767 8.02995C807.387 5.37995 806.64 2.84995 807.246 0.179951C807.246 0.0299508 806.894 -0.0100492 806.767 0.109951C804.696 2.22995 806.147 5.27995 806.386 7.55995C806.499 10.78 806.851 13.99 807.415 17.18C807.528 17.46 808.246 17.5199 808.359 17.2099Z" fill="#FF71A8"/>
<path d="M814.827 16.4498C815.321 15.1472 815.46 13.7895 815.235 12.4498C815.137 10.9998 815.08 9.53984 814.911 8.08984C814.615 5.66984 813.967 3.37984 814.559 0.95984C814.559 0.82984 814.207 0.78984 814.094 0.88984C812.008 2.80984 813.403 5.55984 813.544 7.63984C813.742 10.5298 813.446 13.4698 813.939 16.3698C813.981 16.6398 814.7 16.7298 814.827 16.4498Z" fill="#FF71A8"/>
<path d="M822.027 16.11C822.487 14.8636 822.583 13.5636 822.309 12.29C822.168 10.9 822.069 9.50995 821.844 8.11995C821.477 5.80995 820.745 3.63995 821.266 1.30995C821.266 1.17995 820.9 1.14995 820.787 1.24995C818.772 3.11995 820.265 5.72995 820.463 7.70995C820.759 10.48 820.561 13.3 821.139 16.06C821.195 16.3 821.914 16.38 822.027 16.11Z" fill="#FF71A8"/>
<path d="M829.382 16.5099C829.758 15.1914 829.782 13.8346 829.452 12.5099C829.227 11.0399 829.058 9.5699 828.762 8.1099C828.269 5.6699 827.353 3.3899 827.804 0.9199C827.804 0.7799 827.438 0.7599 827.325 0.8699C825.423 2.8699 827.043 5.6099 827.325 7.7099C827.762 10.6299 827.719 13.6099 828.452 16.5199C828.523 16.7299 829.269 16.7899 829.382 16.5099Z" fill="#FF71A8"/>
<path d="M836.315 17.2599C836.709 15.8016 836.738 14.3053 836.399 12.8399C836.188 11.2299 836.019 9.6099 835.723 8.0099C835.244 5.3399 834.398 2.8299 834.793 0.129895C834.793 -0.020105 834.427 -0.050105 834.314 0.069895C832.397 2.2699 834.018 5.2599 834.314 7.5599C834.737 10.7699 834.694 14.0299 835.413 17.2199C835.483 17.4999 836.202 17.5699 836.315 17.2599Z" fill="#FF71A8"/>
</g>
<g clip-path="url(#clip23_173_17482)">
<path d="M844.995 17.2099C845.333 15.7565 845.333 14.2734 844.995 12.82C844.783 11.2299 844.642 9.61995 844.403 8.02995C844.022 5.37995 843.276 2.84995 843.881 0.179951C843.881 0.0299508 843.529 -0.0100492 843.402 0.109951C841.331 2.22995 842.782 5.27995 843.022 7.55995C843.135 10.78 843.487 13.99 844.05 17.18C844.163 17.46 844.882 17.5199 844.995 17.2099Z" fill="#FF71A8"/>
<path d="M851.462 16.4498C851.956 15.1472 852.095 13.7895 851.871 12.4498C851.772 10.9998 851.716 9.53984 851.547 8.08984C851.251 5.66984 850.603 3.37984 851.194 0.95984C851.194 0.82984 850.842 0.78984 850.729 0.88984C848.644 2.80984 850.039 5.55984 850.18 7.63984C850.377 10.5298 850.081 13.4698 850.574 16.3698C850.617 16.6398 851.335 16.7298 851.462 16.4498Z" fill="#FF71A8"/>
<path d="M858.662 16.11C859.122 14.8636 859.218 13.5636 858.944 12.29C858.803 10.9 858.705 9.50995 858.479 8.11995C858.113 5.80995 857.38 3.63995 857.901 1.30995C857.901 1.17995 857.535 1.14995 857.422 1.24995C855.407 3.11995 856.901 5.72995 857.098 7.70995C857.394 10.48 857.197 13.3 857.775 16.06C857.831 16.3 858.55 16.38 858.662 16.11Z" fill="#FF71A8"/>
<path d="M866.018 16.5099C866.393 15.1914 866.417 13.8346 866.088 12.5099C865.863 11.0399 865.693 9.5699 865.398 8.1099C864.904 5.6699 863.988 3.3899 864.439 0.9199C864.439 0.7799 864.073 0.7599 863.96 0.8699C862.058 2.8699 863.679 5.6099 863.96 7.7099C864.397 10.6299 864.355 13.6099 865.088 16.5199C865.158 16.7299 865.905 16.7899 866.018 16.5099Z" fill="#FF71A8"/>
<path d="M872.95 17.2599C873.345 15.8016 873.373 14.3053 873.035 12.8399C872.823 11.2299 872.654 9.6099 872.358 8.0099C871.879 5.3399 871.034 2.8299 871.428 0.129895C871.428 -0.020105 871.062 -0.050105 870.949 0.069895C869.033 2.2699 870.653 5.2599 870.949 7.5599C871.372 10.7699 871.33 14.0299 872.048 17.2199C872.119 17.4999 872.837 17.5699 872.95 17.2599Z" fill="#FF71A8"/>
</g>
<g clip-path="url(#clip24_173_17482)">
<path d="M881.63 17.2099C881.968 15.7565 881.968 14.2734 881.63 12.82C881.418 11.2299 881.278 9.61995 881.038 8.02995C880.658 5.37995 879.911 2.84995 880.517 0.179951C880.517 0.0299508 880.164 -0.0100492 880.038 0.109951C877.966 2.22995 879.418 5.27995 879.657 7.55995C879.77 10.78 880.122 13.99 880.686 17.18C880.798 17.46 881.517 17.5199 881.63 17.2099Z" fill="#FF71A8"/>
<path d="M888.097 16.4498C888.592 15.1472 888.73 13.7895 888.506 12.4498C888.407 10.9998 888.351 9.53984 888.182 8.08984C887.886 5.66984 887.238 3.37984 887.83 0.95984C887.83 0.82984 887.477 0.78984 887.365 0.88984C885.279 2.80984 886.674 5.55984 886.815 7.63984C887.012 10.5298 886.716 13.4698 887.21 16.3698C887.252 16.6398 887.97 16.7298 888.097 16.4498Z" fill="#FF71A8"/>
<path d="M895.298 16.11C895.757 14.8636 895.853 13.5636 895.579 12.29C895.438 10.9 895.34 9.50995 895.114 8.11995C894.748 5.80995 894.015 3.63995 894.537 1.30995C894.537 1.17995 894.17 1.14995 894.058 1.24995C892.043 3.11995 893.536 5.72995 893.734 7.70995C894.029 10.48 893.832 13.3 894.41 16.06C894.466 16.3 895.185 16.38 895.298 16.11Z" fill="#FF71A8"/>
<path d="M902.653 16.5099C903.028 15.1914 903.052 13.8346 902.723 12.5099C902.498 11.0399 902.329 9.5699 902.033 8.1099C901.54 5.6699 900.624 3.3899 901.075 0.9199C901.075 0.7799 900.708 0.7599 900.596 0.8699C898.693 2.8699 900.314 5.6099 900.596 7.7099C901.032 10.6299 900.99 13.6099 901.723 16.5199C901.793 16.7299 902.54 16.7899 902.653 16.5099Z" fill="#FF71A8"/>
<path d="M909.585 17.2599C909.98 15.8016 910.008 14.3053 909.67 12.8399C909.459 11.2299 909.29 9.6099 908.994 8.0099C908.515 5.3399 907.669 2.8299 908.064 0.129895C908.064 -0.020105 907.697 -0.050105 907.585 0.069895C905.668 2.2699 907.289 5.2599 907.585 7.5599C908.007 10.7699 907.965 14.0299 908.684 17.2199C908.754 17.4999 909.473 17.5699 909.585 17.2599Z" fill="#FF71A8"/>
</g>
<defs>
<clipPath id="clip0_173_17482">
<rect width="44.7515" height="17.47" fill="white"/>
</clipPath>
<clipPath id="clip1_173_17482">
<rect width="44.7515" height="17.47" fill="white" transform="translate(36.6353)"/>
</clipPath>
<clipPath id="clip2_173_17482">
<rect width="44.7515" height="17.47" fill="white" transform="translate(73.2708)"/>
</clipPath>
<clipPath id="clip3_173_17482">
<rect width="44.7515" height="17.47" fill="white" transform="translate(109.906)"/>
</clipPath>
<clipPath id="clip4_173_17482">
<rect width="44.7515" height="17.47" fill="white" transform="translate(146.542)"/>
</clipPath>
<clipPath id="clip5_173_17482">
<rect width="44.7515" height="17.47" fill="white" transform="translate(183.177)"/>
</clipPath>
<clipPath id="clip6_173_17482">
<rect width="44.7515" height="17.47" fill="white" transform="translate(219.812)"/>
</clipPath>
<clipPath id="clip7_173_17482">
<rect width="44.7515" height="17.47" fill="white" transform="translate(256.448)"/>
</clipPath>
<clipPath id="clip8_173_17482">
<rect width="44.7515" height="17.47" fill="white" transform="translate(293.083)"/>
</clipPath>
<clipPath id="clip9_173_17482">
<rect width="44.7515" height="17.47" fill="white" transform="translate(329.718)"/>
</clipPath>
<clipPath id="clip10_173_17482">
<rect width="44.7515" height="17.47" fill="white" transform="translate(366.354)"/>
</clipPath>
<clipPath id="clip11_173_17482">
<rect width="44.7515" height="17.47" fill="white" transform="translate(402.989)"/>
</clipPath>
<clipPath id="clip12_173_17482">
<rect width="44.7515" height="17.47" fill="white" transform="translate(439.624)"/>
</clipPath>
<clipPath id="clip13_173_17482">
<rect width="44.7515" height="17.47" fill="white" transform="translate(476.26)"/>
</clipPath>
<clipPath id="clip14_173_17482">
<rect width="44.7515" height="17.47" fill="white" transform="translate(512.895)"/>
</clipPath>
<clipPath id="clip15_173_17482">
<rect width="44.7515" height="17.47" fill="white" transform="translate(549.531)"/>
</clipPath>
<clipPath id="clip16_173_17482">
<rect width="44.7515" height="17.47" fill="white" transform="translate(586.166)"/>
</clipPath>
<clipPath id="clip17_173_17482">
<rect width="44.7515" height="17.47" fill="white" transform="translate(622.801)"/>
</clipPath>
<clipPath id="clip18_173_17482">
<rect width="44.7515" height="17.47" fill="white" transform="translate(659.436)"/>
</clipPath>
<clipPath id="clip19_173_17482">
<rect width="44.7515" height="17.47" fill="white" transform="translate(696.072)"/>
</clipPath>
<clipPath id="clip20_173_17482">
<rect width="44.7515" height="17.47" fill="white" transform="translate(732.707)"/>
</clipPath>
<clipPath id="clip21_173_17482">
<rect width="44.7515" height="17.47" fill="white" transform="translate(769.343)"/>
</clipPath>
<clipPath id="clip22_173_17482">
<rect width="44.7515" height="17.47" fill="white" transform="translate(805.978)"/>
</clipPath>
<clipPath id="clip23_173_17482">
<rect width="44.7515" height="17.47" fill="white" transform="translate(842.613)"/>
</clipPath>
<clipPath id="clip24_173_17482">
<rect width="44.7515" height="17.47" fill="white" transform="translate(879.249)"/>
</clipPath>
</defs>
</svg>
