<svg width="43" height="20" viewBox="0 0 43 20" fill="none" xmlns="http://www.w3.org/2000/svg">
<path d="M30.6608 12.8093C31.2285 13.1193 31.8701 13.2686 32.5164 13.2411C33.1627 13.2136 33.7892 13.0104 34.3286 12.6532C34.8598 12.252 35.277 11.719 35.539 11.107C35.801 10.495 35.8987 9.82516 35.8224 9.16382C35.7616 8.50092 35.5426 7.8623 35.1837 7.30165C34.8248 6.741 34.3366 6.2747 33.76 5.94197C32.6344 5.27976 31.297 5.07617 30.0253 5.3734C28.8217 5.70324 27.7411 6.37841 26.9169 7.31553C26.0927 8.25265 25.5611 9.41066 25.3877 10.6465C25.1967 11.8787 25.2923 13.1382 25.6668 14.3275C26.0414 15.5167 26.685 16.6037 27.5475 17.504C28.4101 18.4043 29.4685 19.0938 30.6407 19.5189C31.8128 19.944 33.0671 20.0934 34.3063 19.9553C35.5676 19.8387 36.7905 19.4589 37.896 18.8405C39.0074 18.2343 39.9736 17.3936 40.7277 16.3767C41.4751 15.3663 42.0005 14.2094 42.2695 12.9817C42.5384 11.754 42.5449 10.4834 42.2884 9.253C41.8074 6.83774 40.5509 4.64562 38.7098 3.00997C37.1957 1.67056 35.3658 0.73832 33.3921 0.30094C31.4881 -0.100313 29.5213 -0.100313 27.6173 0.30094C25.7394 0.660269 23.9369 1.339 22.2884 2.30763C20.6854 3.28915 19.2068 4.46078 17.8849 5.79704C15.2427 8.43918 13.0354 11.4604 10.2706 13.9799C8.91256 15.2636 7.39061 16.3619 5.7444 17.2463C4.9299 17.6803 4.02492 17.917 3.10226 17.9375C2.66577 17.9202 2.2422 17.7845 1.87693 17.5449C1.51166 17.3053 1.21844 16.9709 1.02868 16.5774C0.716527 15.8416 0.304041 15.7079 0.515858 16.3767C0.622191 16.7868 0.81296 17.1702 1.07596 17.5023C1.33895 17.8344 1.66839 18.1079 2.04317 18.3054C2.89863 18.6624 3.85014 18.7174 4.74105 18.4615C6.47741 17.9304 8.0941 17.0671 9.50137 15.9197C12.4445 13.69 14.8191 10.7134 17.3052 8.0044C19.7912 5.29537 22.5783 2.85389 25.9562 1.79481C27.5972 1.24569 29.321 0.985422 31.051 1.02558C32.9763 1.06375 34.8544 1.62835 36.4817 2.65814C38.1089 3.68793 39.4231 5.1436 40.2817 6.86727C41.2911 8.84678 41.5371 11.1284 40.9729 13.2775C40.6441 14.3254 40.0977 15.292 39.3696 16.1143C38.6416 16.9365 37.7481 17.5958 36.7477 18.049C35.7539 18.517 34.669 18.7596 33.5705 18.7596C32.472 18.7596 31.3871 18.517 30.3932 18.049L29.6797 17.6477C29.4456 17.4916 29.245 17.3021 29.0331 17.1348C28.6034 16.8001 28.2275 16.4016 27.9183 15.9531C27.2744 15.0601 26.847 14.0296 26.6697 12.9431C26.4562 11.8731 26.5526 10.7644 26.9476 9.74737C27.3426 8.73031 28.0197 7.84715 28.8994 7.20172C29.3407 6.8926 29.8386 6.67344 30.3646 6.55675C30.8906 6.44007 31.4345 6.42815 31.9651 6.52168C32.501 6.60216 33.0092 6.81162 33.4462 7.13205C33.8831 7.45248 34.2357 7.87428 34.4735 8.36114C34.7051 8.84769 34.8063 9.38606 34.7672 9.9235C34.7281 10.4609 34.5501 10.979 34.2505 11.4269C33.9126 11.8523 33.4536 12.1653 32.9341 12.3245C32.4147 12.4838 31.8591 12.4818 31.3408 12.3188C30.605 12.107 30.1703 11.7391 29.9584 11.7279C29.7466 11.7168 29.8135 11.806 29.8916 12.0066C30.059 12.3471 30.3277 12.6275 30.6608 12.8093Z" fill="#FF64D2"/>
</svg>
