<svg width="11" height="24" viewBox="0 0 11 24" fill="none" xmlns="http://www.w3.org/2000/svg">
<path d="M6.02381 0.647837C4.09391 1.28189 2.64155 2.24805 1.91398 3.38185C1.07049 4.49261 0.766088 5.69632 1.02824 6.88439C1.41481 8.15874 2.3811 9.36511 3.84489 10.4009C4.56612 10.9169 5.40164 11.386 6.33382 11.7982C6.56411 11.9006 6.80326 12.0031 7.05127 12.0963L7.41442 12.236L7.71557 12.3384C7.83958 12.3897 8.24702 12.4316 7.84843 12.5108L7.55614 12.6039L7.47642 12.6319L7.32585 12.6924L7.03355 12.8135C6.63641 12.958 6.26839 13.1234 5.93524 13.3072C5.24628 13.6734 4.6508 14.0852 4.16376 14.5322C3.18696 15.4064 2.54878 16.3735 2.28599 17.378C1.97824 18.3797 2.04986 19.4035 2.49674 20.3907C2.94363 21.3778 3.75697 22.3088 4.89006 23.1301C5.15579 23.3211 5.41265 23.2838 5.25322 23.1301C3.54819 21.5636 2.77101 19.765 3.02115 17.9648C3.15012 17.0141 3.60315 16.0833 4.35862 15.2168C5.08223 14.3989 6.17727 13.6872 7.54728 13.1442L7.88386 13.0091C8.03977 12.9538 8.20252 12.904 8.37102 12.8601L9.41619 12.5574C10.0805 12.4595 9.34533 12.3384 9.05304 12.222C8.76075 12.1056 8.25587 11.9612 8.05215 11.8867C7.11203 11.5457 6.25787 11.1435 5.51008 10.6896C3.98807 9.77988 2.89292 8.69513 2.31256 7.52248C1.77412 6.35532 1.86925 5.13213 2.58714 3.992C3.1655 2.81918 4.39968 1.76457 6.1301 0.96455C6.80326 0.73167 6.89184 0.424271 6.02381 0.647837Z" fill="#FF64D2" stroke="#FF64D2" stroke-width="0.88574" stroke-miterlimit="10"/>
</svg>
