<svg width="9" height="25" viewBox="0 0 9 25" fill="none" xmlns="http://www.w3.org/2000/svg">
<path d="M2.46226 1.50018C3.93723 2.20756 5.0414 3.10255 5.66863 4.09913C6.4033 5.0915 6.70596 6.1578 6.55437 7.21973C6.26205 8.3934 5.43227 9.51221 4.1363 10.4801C3.48802 10.9604 2.73932 11.401 1.90424 11.7935C1.70052 11.8913 1.48794 11.9891 1.26651 12.0823L0.929926 12.2173L0.513628 12.3757L-0.708692 12.7809L-1.00099 12.8787H-1.06299L-0.983272 12.902L-0.832696 12.9439L-0.230393 13.1069L0.761635 13.3771L1.00078 13.4423L1.15136 13.5215L1.4348 13.6239C1.82216 13.7542 2.18675 13.9022 2.52426 14.0664C3.21436 14.3898 3.8244 14.7575 4.34002 15.161C5.39404 15.9699 6.11784 16.885 6.4658 17.8484C6.82476 18.822 6.79762 19.8241 6.38608 20.792C5.98413 21.7777 5.09508 22.6902 3.80858 23.4375C3.52514 23.6052 3.62257 23.7449 3.89715 23.6285C5.29142 23.0562 6.32795 22.2776 6.87324 21.3928C7.51124 20.4147 7.71722 19.373 7.47554 18.3468C7.2363 17.303 6.59109 16.2962 5.58006 15.3892C4.65932 14.5445 3.38764 13.8201 1.85995 13.27C1.6647 13.1848 1.45407 13.11 1.23108 13.0464L0.74392 12.916C0.451626 12.8741 0.743921 12.8321 0.841352 12.7856C0.938783 12.739 0.974213 12.7437 1.04507 12.7157L1.31079 12.6179C2.28718 12.2514 3.17894 11.8262 3.96801 11.351C5.54268 10.3993 6.67118 9.26668 7.26296 8.04412C7.83181 6.80955 7.70251 5.51449 6.89095 4.31803C6.21289 3.11808 4.82238 2.06373 2.92284 1.30922C2.20539 1.08099 1.80681 1.23936 2.46226 1.50018Z" fill="#FF64D2" stroke="#FF64D2" stroke-width="0.88574" stroke-miterlimit="10"/>
</svg>
