<svg width="30" height="11" viewBox="0 0 30 11" fill="none" xmlns="http://www.w3.org/2000/svg">
<path d="M28.2231 4.48813C27.3419 5.96381 26.2286 7.06783 24.9896 7.69451C23.7594 8.42918 22.4374 8.73184 21.1209 8.58025C19.6659 8.28793 18.2789 7.45815 17.0791 6.16218C16.4799 5.51772 15.9298 4.77197 15.4392 3.93898C15.318 3.73526 15.1967 3.52268 15.0812 3.30124L14.9138 2.96466L14.7175 2.54836L14.2382 1.31719L14.1169 1.02489V0.962891V1.04261L14.0188 1.19318L13.8167 1.79549L13.4818 2.78751L13.4009 3.02666L13.3317 3.16838L13.2046 3.45182C13.034 3.84099 12.8408 4.20564 12.6272 4.54128C12.2267 5.2345 11.7708 5.84753 11.2703 6.3659C10.2708 7.41768 9.1405 8.14139 7.95017 8.49168C6.74314 8.85064 5.5008 8.8235 4.30092 8.41196C3.08718 8.00419 1.96436 7.11548 1.04434 5.83446C0.836472 5.55102 0.657454 5.64845 0.807581 5.92303C1.51701 7.3173 2.48231 8.35383 3.57915 8.89912C4.79177 9.53712 6.08321 9.7431 7.35545 9.50142C8.64351 9.25864 9.88547 8.61354 11.0047 7.60594C12.0519 6.6852 12.95 5.41352 13.6319 3.88583C13.7361 3.69092 13.827 3.4802 13.9033 3.25696L14.0708 2.7698C14.1227 2.47751 14.1747 2.7698 14.2324 2.86723C14.2902 2.96466 14.2844 3.00009 14.319 3.07095L14.4403 3.33667C14.8947 4.31306 15.4218 5.20482 16.0109 5.99389C17.1908 7.56856 18.5949 8.69706 20.1105 9.28884C21.641 9.85769 23.2465 9.72839 24.7298 8.91683C26.2153 8.23708 27.5202 6.84671 28.4541 4.94872C28.7312 4.23127 28.5465 3.83269 28.2231 4.48813Z" fill="#FF64D2" stroke="#FF64D2" stroke-width="0.88574" stroke-miterlimit="10"/>
</svg>
