<svg width="30" height="10" viewBox="0 0 30 10" fill="none" xmlns="http://www.w3.org/2000/svg">
<path d="M28.7692 6.56362C27.8912 5.09047 26.782 3.98664 25.5472 3.35725C24.315 2.62214 22.9912 2.31949 21.6728 2.47151C20.2178 2.76417 18.8309 3.59392 17.6309 4.88958C17.0305 5.53174 16.4803 6.27772 15.9911 7.11278C15.864 7.31485 15.7445 7.52777 15.6331 7.75051L15.4656 8.0871L15.2924 8.51225L14.7843 9.73457L14.663 10.0269C14.663 10.0269 14.663 10.0889 14.6284 10.0889V10.0092L14.5764 9.85857L14.3685 9.25627L14.0336 8.26424L13.9528 8.02509L13.8893 7.88338L13.7623 7.59994C13.5934 7.20883 13.4 6.84395 13.1849 6.51048C12.7859 5.81478 12.3298 5.20145 11.8279 4.68586C10.8224 3.6332 9.68633 2.90957 8.49048 2.56008C7.28538 2.20133 6.04495 2.22847 4.84701 2.6398C3.63244 3.04402 2.50902 3.93317 1.59041 5.2173C1.38254 5.50074 1.20354 5.40331 1.3479 5.12873C2.0613 3.73697 3.02788 2.70123 4.12525 2.15264C5.33593 1.51507 6.62541 1.30909 7.89575 1.55034C9.18543 1.79439 10.4291 2.43936 11.5508 3.44582C12.5955 4.37168 13.4929 5.64239 14.178 7.16593C14.2802 7.3631 14.371 7.57352 14.4494 7.7948L14.6111 8.28196C14.6688 8.57425 14.7208 8.28196 14.7785 8.18453C14.8033 8.1127 14.8322 8.04451 14.8651 7.98081L14.9864 7.71509C15.439 6.73652 15.9663 5.84445 16.5569 5.05787C17.7361 3.48155 19.1405 2.35284 20.6566 1.76292C22.1871 1.19407 23.7926 1.32337 25.2759 2.13493C26.7626 2.81069 28.0683 4.20186 29.0002 6.10304C29.2773 6.82049 29.0868 7.21907 28.7692 6.56362Z" fill="#FF64D2" stroke="#FF64D2" stroke-width="0.88574" stroke-miterlimit="10"/>
</svg>
