<svg width="218" height="35" viewBox="0 0 218 35" fill="none" xmlns="http://www.w3.org/2000/svg">
<g clip-path="url(#clip0_159_9235)">
<g clip-path="url(#clip1_159_9235)">
<g clip-path="url(#clip2_159_9235)">
<path d="M217.92 17.6165C217.8 16.3018 217.394 15.0293 216.731 13.8879C216.068 12.7464 215.164 11.7636 214.081 11.0082C211.929 9.39316 209.24 8.66437 206.567 8.9717C205.103 9.14674 203.705 9.68201 202.498 10.5296C201.292 11.3772 200.314 12.5107 199.653 13.8286C199 15.0979 198.616 16.4881 198.525 17.9125C198.434 19.3369 198.637 20.7648 199.123 22.1068C199.91 24.2955 201.486 26.1113 203.542 27.198C205.524 28.2375 207.793 28.5953 209.998 28.2162C212.186 27.7681 214.154 26.5819 215.572 24.8562C216.99 23.1305 217.772 20.97 217.787 18.7365C217.787 18.207 217.492 18.1052 217.431 18.5023C217.185 20.3419 216.485 22.0913 215.395 23.5934C214.285 25.1941 212.694 26.3996 210.853 27.0351C208.93 27.6152 206.869 27.5472 204.988 26.8416C203.165 26.1882 201.635 24.9067 200.671 23.2269C200.048 22.1015 199.663 20.8604 199.538 19.5802C199.414 18.3 199.553 17.0078 199.948 15.7836C200.337 14.5587 201.01 13.4432 201.913 12.5283C202.815 11.6134 203.922 10.925 205.141 10.5194C206.393 10.1712 207.701 10.0764 208.99 10.2404C210.279 10.4044 211.522 10.8239 212.647 11.4744C213.772 12.1249 214.755 12.9933 215.54 14.0288C216.325 15.0642 216.895 16.2458 217.217 17.5044C217.441 18.3801 217.981 18.6958 217.92 17.6165Z" fill="#FF71A8"/>
<path d="M151.236 25.8336C152.098 26.826 153.166 27.6188 154.365 28.1569C155.564 28.6949 156.866 28.9654 158.18 28.9494C160.864 28.9956 163.464 28.0159 165.45 26.2104C166.532 25.2245 167.356 23.9892 167.851 22.6121C168.346 21.235 168.497 19.7578 168.291 18.3089C168.081 16.8966 167.583 15.5424 166.828 14.3303C166.074 13.1183 165.078 12.0742 163.903 11.2628C161.987 9.92601 159.641 9.35231 157.325 9.65401C155.103 9.94491 153.043 10.9699 151.47 12.5661C149.953 14.1996 149.043 16.3049 148.893 18.5294C148.743 20.7538 149.361 22.9623 150.645 24.7849C150.961 25.2125 151.256 25.1209 151.073 24.7849C150.206 23.1552 149.754 21.3363 149.76 19.4901C149.738 17.5436 150.341 15.6415 151.48 14.0629C152.696 12.4616 154.413 11.3142 156.358 10.8046C158.219 10.2762 160.208 10.4278 161.968 11.2323C163.127 11.7884 164.16 12.5744 165.006 13.5424C165.851 14.5103 166.491 15.6401 166.886 16.8631C167.287 18.0852 167.392 19.3848 167.194 20.6555C166.996 21.9262 166.499 23.1319 165.746 24.1739C164.935 25.1858 163.93 26.0251 162.79 26.6424C161.65 27.2597 160.397 27.6425 159.107 27.7683C157.81 27.9102 156.498 27.7856 155.252 27.4021C154.005 27.0187 152.85 26.3844 151.857 25.5384C151.175 24.9376 150.523 25.0191 151.236 25.8336Z" fill="#FF71A8"/>
<path d="M160.532 9.99003C158.404 10.3464 156.205 12.8105 154.617 14.1444C152.714 15.5976 150.898 17.1616 149.179 18.8282V20.4574C152.814 17.1176 156.734 13.4418 160.96 11.0083C161.602 10.7028 161.164 9.85766 160.532 9.99003Z" fill="#FF71A8"/>
<path d="M164.096 12.1384C161.201 13.8001 158.449 15.7006 155.869 17.8201C153.914 19.3475 151.704 20.8748 149.76 22.6465C149.76 22.728 149.831 22.8095 149.872 22.9011L150.269 23.5528C152.01 22.0967 153.945 20.773 155.655 19.4799C158.71 17.1277 161.765 15.0404 165.003 12.9734C164.679 12.7192 164.376 12.44 164.096 12.1384Z" fill="#FF71A8"/>
<path d="M167.283 15.295L167.069 14.8877C163.964 16.9242 161.042 19.3374 158.15 21.6487C156.173 23.1577 154.273 24.7652 152.458 26.4649C152.536 26.4977 152.608 26.5424 152.672 26.5973C152.886 26.7806 153.089 26.9741 153.293 27.1675C157.783 23.0946 162.956 19.8974 167.609 16.079C167.497 15.8143 167.375 15.5495 167.283 15.295Z" fill="#FF71A8"/>
<path d="M168.088 19.5205C164.036 22.2361 160.137 25.173 156.409 28.318C156.926 28.3064 157.443 28.3302 157.956 28.3893C161.154 25.7826 164.595 23.512 167.966 21.1191C168.065 20.5924 168.106 20.0563 168.088 19.5205Z" fill="#FF71A8"/>
<path d="M183.972 9.20585C182.658 9.10675 181.338 9.29803 180.107 9.76611C178.875 10.2342 177.761 10.9676 176.844 11.9143C174.907 13.7941 173.763 16.3447 173.647 19.0419C173.587 20.4997 173.884 21.9501 174.512 23.2669C175.14 24.5838 176.081 25.727 177.252 26.5972C178.398 27.4496 179.707 28.056 181.098 28.3784C182.49 28.7008 183.933 28.7322 185.336 28.4707C187.629 28.0524 189.685 26.8012 191.11 24.9578C192.442 23.1658 193.157 20.9898 193.146 18.7568C193.068 16.53 192.227 14.3976 190.765 12.7165C189.302 11.0353 187.307 9.90744 185.112 9.5215C184.593 9.44004 184.44 9.70478 184.827 9.83715C186.585 10.3786 188.18 11.3477 189.47 12.6576C190.874 14.0243 191.793 15.812 192.087 17.7488C192.355 19.7431 191.954 21.7697 190.947 23.512C190.001 25.1997 188.485 26.4955 186.67 27.1674C185.459 27.596 184.173 27.7719 182.891 27.6843C181.609 27.5968 180.359 27.2476 179.217 26.6583C178.072 26.0754 177.082 25.23 176.326 24.1913C175.57 23.1525 175.071 21.9498 174.869 20.6813C174.722 19.3937 174.836 18.0896 175.206 16.8473C175.575 15.605 176.191 14.4501 177.018 13.4519C177.829 12.4192 178.847 11.5664 180.005 10.9476C181.164 10.3289 182.438 9.95767 183.748 9.85752C184.654 9.79642 185.062 9.27713 183.972 9.20585Z" fill="#FF71A8"/>
<path d="M184.603 23.624C185.245 23.5852 185.868 23.3953 186.422 23.0697C186.976 22.7441 187.445 22.292 187.791 21.7505C188.507 20.6645 188.78 19.3456 188.554 18.0645C188.429 17.3543 188.132 16.6858 187.688 16.1176C187.244 15.5494 186.667 15.099 186.009 14.8062C185.382 14.5293 184.704 14.3862 184.018 14.3862C183.332 14.3862 182.654 14.5293 182.027 14.8062C181.025 15.2475 180.223 16.046 179.777 17.0463C179.361 18.0098 179.276 19.0836 179.533 20.1009C179.814 21.0754 180.404 21.9324 181.214 22.5437C182.023 23.1549 183.009 23.4875 184.023 23.4916C184.07 23.4975 184.118 23.4849 184.156 23.4564C184.194 23.4279 184.219 23.3858 184.227 23.3389C184.236 23.2958 184.229 23.2507 184.206 23.2128C184.183 23.175 184.147 23.1472 184.105 23.1353C183.366 22.8826 182.677 22.5037 182.068 22.0152C181.467 21.5652 180.99 20.9695 180.683 20.2842C180.371 19.5475 180.315 18.727 180.526 17.9549C180.737 17.1828 181.201 16.5041 181.844 16.028C182.301 15.7347 182.814 15.5397 183.35 15.4556C183.887 15.3714 184.435 15.3999 184.96 15.5393C185.482 15.6692 185.966 15.9217 186.372 16.2759C186.777 16.63 187.092 17.0756 187.292 17.5757C187.633 18.6482 187.544 19.8116 187.042 20.8192C186.54 21.8267 185.665 22.5991 184.603 22.9723C184.196 23.0945 184.074 23.6444 184.603 23.624Z" fill="#FF71A8"/>
<path d="M69.1261 17.6165C69.0021 16.2983 68.5904 15.0233 67.9202 13.8815C67.2499 12.7398 66.3372 11.7589 65.2467 11.0082C63.0945 9.39316 60.4053 8.66437 57.7322 8.9717C56.2771 9.13743 54.8855 9.66008 53.6812 10.4932C52.4768 11.3263 51.4969 12.4441 50.8286 13.7472C50.1717 15.0149 49.7846 16.405 49.6917 17.8298C49.5988 19.2545 49.8022 20.6831 50.2889 22.0254C51.0782 24.2125 52.6536 26.0275 54.708 27.1165C56.671 28.2212 58.9449 28.6437 61.1738 28.318C63.3621 27.8685 65.3301 26.6822 66.7495 24.9571C68.1689 23.2319 68.9539 21.0723 68.9734 18.8383C68.9734 18.3088 68.6679 18.207 68.6068 18.6041C68.3603 20.4437 67.6605 22.1932 66.5704 23.6953C65.4534 25.2863 63.8594 26.4808 62.0189 27.1063C60.0955 27.6864 58.0348 27.6185 56.1539 26.9129C54.3421 26.2292 52.8332 24.9224 51.8977 23.2269C51.2748 22.1015 50.8893 20.8604 50.7649 19.5802C50.6406 18.3 50.7801 17.0078 51.1748 15.7836C51.5637 14.5587 52.237 13.4432 53.1395 12.5283C54.042 11.6134 55.1482 10.925 56.3677 10.5194C57.6143 10.1664 58.9192 10.0674 60.2048 10.2283C61.4904 10.3892 62.7306 10.8068 63.8517 11.4562C64.99 12.0967 65.9849 12.964 66.7748 14.0043C67.5646 15.0446 68.1327 16.2359 68.4439 17.5044C68.6476 18.3801 69.2279 18.6958 69.1261 17.6165Z" fill="#FF71A8"/>
<path d="M2.44238 25.8336C3.30426 26.826 4.37192 27.6187 5.57115 28.1568C6.77037 28.6949 8.07239 28.9653 9.3867 28.9493C12.0705 28.9955 14.6707 28.0159 16.6568 26.2103C17.7412 25.2266 18.5673 23.9916 19.0626 22.6139C19.558 21.2361 19.7074 19.7578 19.4977 18.3089C19.2903 16.8929 18.7936 15.5347 18.0386 14.319C17.2836 13.1033 16.2864 12.056 15.1091 11.2424C13.195 9.91156 10.8523 9.34495 8.54157 9.65393C6.31698 9.94493 4.25303 10.9697 2.67657 12.5661C1.16073 14.2008 0.252605 16.3067 0.10431 18.5311C-0.0439842 20.7555 0.576554 22.9633 1.86199 24.7848C2.16746 25.2125 2.46275 25.1208 2.27947 24.7848C1.41548 23.1542 0.967768 21.3354 0.976134 19.49C0.954694 17.5435 1.55781 15.6414 2.69694 14.0629C3.91221 12.4615 5.62962 11.3141 7.57425 10.8045C9.43583 10.2762 11.4247 10.4278 13.1847 11.2322C14.3437 11.7905 15.3772 12.5783 16.2226 13.548C17.068 14.5177 17.7076 15.6489 18.1027 16.8732C18.5001 18.0946 18.603 19.3927 18.4031 20.6615C18.2031 21.9303 17.7059 23.1338 16.9521 24.1739C16.1414 25.1857 15.1364 26.025 13.9962 26.6424C12.856 27.2597 11.6037 27.6425 10.3133 27.7682C9.01669 27.9101 7.70477 27.7855 6.45807 27.402C5.21138 27.0186 4.05621 26.3843 3.0635 25.5383C2.38129 24.9375 1.72962 25.019 2.44238 25.8336Z" fill="#FF71A8"/>
<path d="M11.7388 9.99003C9.61071 10.3464 7.42152 12.8105 5.82291 14.1444C3.92157 15.5882 2.10922 17.1455 0.395752 18.8079V20.437C4.02064 17.1176 7.951 13.4418 12.197 11.0083C12.8181 10.7028 12.3701 9.85766 11.7388 9.99003Z" fill="#FF71A8"/>
<path d="M15.3536 12.1384C12.4861 13.8043 9.76156 15.7047 7.20776 17.8201C5.26294 19.3475 3.0432 20.8748 1.09839 22.6465C1.09839 22.728 1.16966 22.8095 1.21039 22.9011L1.6075 23.5528C3.34867 22.0967 5.28331 20.773 6.99393 19.4799C10.0486 17.1277 13.1033 15.0098 16.3718 12.9734C16.0139 12.7184 15.6737 12.4394 15.3536 12.1384Z" fill="#FF71A8"/>
<path d="M18.4897 15.295L18.2759 14.8877C15.2212 16.9242 12.248 19.3374 9.3562 21.6487C7.37938 23.1577 5.47968 24.7652 3.66431 26.4649C3.74317 26.4954 3.81568 26.5403 3.87813 26.5973C4.09196 26.7806 4.29561 26.9741 4.49925 27.1675C8.99982 23.0946 14.1622 19.8974 18.8155 16.079C18.7035 15.8143 18.5813 15.5495 18.4897 15.295Z" fill="#FF71A8"/>
<path d="M19.3349 19.5205C15.2732 22.2359 11.364 25.1728 7.62524 28.318C8.13878 28.3065 8.6525 28.3303 9.16277 28.3893C12.36 25.7826 15.8016 23.512 19.1719 21.1191C19.2432 20.5591 19.2941 20.0398 19.3349 19.5205Z" fill="#FF71A8"/>
<path d="M35.1785 9.20585C33.8645 9.10675 32.5448 9.29803 31.313 9.76611C30.0812 10.2342 28.9675 10.9676 28.0509 11.9143C26.1131 13.7941 24.969 16.3447 24.8536 19.0419C24.7849 20.5031 25.0757 21.9588 25.7006 23.2814C26.3255 24.604 27.2654 25.753 28.4378 26.6277C29.5836 27.4801 30.8932 28.0865 32.2845 28.4089C33.6757 28.7313 35.1186 28.7628 36.5225 28.5013C38.8146 28.083 40.8709 26.8318 42.2959 24.9884C43.632 23.1984 44.3471 21.021 44.3323 18.7874C44.2618 16.5581 43.4271 14.4209 41.9682 12.7339C40.5092 11.0469 38.5147 9.91274 36.3189 9.5215C35.7996 9.44004 35.6469 9.70478 36.0338 9.83715C37.8 10.3719 39.4035 11.3418 40.6973 12.6576C42.1009 14.0243 43.0198 15.812 43.3141 17.7488C43.5814 19.7431 43.1803 21.7697 42.1737 23.512C41.2275 25.1997 39.7115 26.4955 37.8971 27.1674C36.6858 27.596 35.3996 27.7719 34.1177 27.6843C32.8358 27.5968 31.5855 27.2476 30.4437 26.6583C29.2991 26.0754 28.3085 25.23 27.5529 24.1913C26.7973 23.1525 26.298 21.9498 26.0959 20.6813C25.9487 19.3937 26.0631 18.0896 26.4323 16.8473C26.8015 15.605 27.4178 14.4501 28.2443 13.4519C29.052 12.4197 30.0657 11.5671 31.221 10.9483C32.3763 10.3294 33.6477 9.95797 34.9545 9.85752C35.8607 9.79642 36.268 9.27713 35.1785 9.20585Z" fill="#FF71A8"/>
<path d="M35.8097 23.6239C36.4511 23.5851 37.0742 23.3952 37.6281 23.0696C38.182 22.7439 38.651 22.2919 38.9968 21.7504C39.7294 20.6712 40.0142 19.3495 39.791 18.0644C39.6662 17.3542 39.3688 16.6857 38.9249 16.1175C38.481 15.5493 37.9043 15.0989 37.2454 14.806C36.62 14.5294 35.9437 14.3865 35.2599 14.3865C34.576 14.3865 33.8997 14.5294 33.2743 14.806C32.2677 15.2445 31.4614 16.0435 31.0139 17.0462C30.5983 18.0097 30.5124 19.0835 30.7695 20.1008C31.0511 21.0753 31.6409 21.9323 32.4503 22.5436C33.2598 23.1548 34.2455 23.4874 35.2599 23.4915C35.307 23.4974 35.3546 23.4848 35.3926 23.4563C35.4305 23.4278 35.456 23.3857 35.4635 23.3388C35.473 23.2957 35.4656 23.2506 35.4429 23.2127C35.4202 23.1749 35.3838 23.1471 35.3413 23.1352C34.6065 22.8742 33.9188 22.496 33.3049 22.0151C32.7037 21.5651 32.2271 20.9694 31.9201 20.2841C31.6076 19.5474 31.5522 18.7269 31.7627 17.9548C31.9733 17.1827 32.4376 16.504 33.0809 16.0279C33.5271 15.7361 34.0282 15.5385 34.5535 15.4475C35.0788 15.3564 35.6172 15.3738 36.1356 15.4984C36.658 15.6284 37.1419 15.8809 37.5474 16.235C37.9529 16.5891 38.2682 17.0347 38.4673 17.5349C38.8091 18.6074 38.7196 19.7708 38.2177 20.7784C37.7158 21.7859 36.8411 22.5582 35.7792 22.9315C35.4024 23.0944 35.2904 23.6443 35.8097 23.6239Z" fill="#FF71A8"/>
<path d="M143.518 17.6164C143.403 16.3018 143 15.0285 142.338 13.8866C141.677 12.7447 140.772 11.7621 139.689 11.0081C137.534 9.3925 134.841 8.66378 132.165 8.97168C130.711 9.1426 129.322 9.66733 128.118 10.4999C126.915 11.3324 125.934 12.4474 125.261 13.7472C124.608 15.0164 124.224 16.4067 124.133 17.831C124.042 19.2554 124.246 20.6833 124.732 22.0254C125.52 24.2098 127.091 26.0239 129.141 27.1165C131.126 28.1546 133.398 28.5123 135.606 28.1347C137.794 27.6867 139.762 26.5005 141.18 24.7747C142.598 23.049 143.38 20.8885 143.396 18.655C143.396 18.1255 143.1 18.0237 143.039 18.4208C142.793 20.2604 142.093 22.0099 141.003 23.512C139.922 25.1327 138.353 26.3667 136.523 27.035C134.596 27.6175 132.532 27.5495 130.648 26.8416C128.828 26.1861 127.302 24.9048 126.34 23.2269C125.723 22.0996 125.34 20.8588 125.216 19.5794C125.091 18.3 125.228 17.0087 125.617 15.7836C126.006 14.5587 126.68 13.4432 127.582 12.5283C128.485 11.6134 129.591 10.925 130.81 10.5194C132.057 10.1664 133.362 10.0674 134.647 10.2283C135.933 10.3892 137.173 10.8068 138.294 11.4562C139.433 12.0967 140.428 12.9639 141.217 14.0043C142.007 15.0446 142.575 16.2358 142.887 17.5044C143.039 18.3801 143.65 18.6958 143.518 17.6164Z" fill="#FF71A8"/>
<path d="M77.6487 11.8329C76.6547 12.6934 75.8608 13.7608 75.3226 14.9604C74.7844 16.1599 74.5149 17.4626 74.5329 18.7772C74.4923 21.4637 75.4794 24.0643 77.2923 26.0474C78.2777 27.1295 79.5129 27.9542 80.8902 28.4493C82.2674 28.9445 83.7449 29.0952 85.1938 28.8882C86.6056 28.6764 87.9592 28.1778 89.171 27.423C90.3828 26.6683 91.4272 25.6734 92.2399 24.4996C93.5662 22.5835 94.1324 20.2425 93.8284 17.9321C93.5385 15.6953 92.5142 13.6181 90.9162 12.0264C89.2827 10.509 87.1775 9.59899 84.953 9.44884C82.7286 9.29869 80.5201 9.9175 78.6975 11.2016C78.2698 11.5172 78.3615 11.8125 78.6975 11.6292C80.3281 10.7653 82.1469 10.3175 83.9923 10.3259C85.9356 10.3045 87.8345 10.9077 89.4093 12.0467C91.0077 13.2647 92.1543 14.981 92.6676 16.924C93.196 18.7856 93.0444 20.7745 92.2399 22.5345C91.689 23.6976 90.9076 24.7369 89.9433 25.5892C88.9789 26.4416 87.8515 27.0893 86.6295 27.4932C85.408 27.8906 84.1099 27.9935 82.8411 27.7936C81.5723 27.5936 80.3688 27.0964 79.3288 26.3426C78.3152 25.5335 77.4747 24.5288 76.8572 23.3883C76.2398 22.2478 75.8579 20.9948 75.7345 19.7038C75.5877 18.407 75.7099 17.0938 76.0936 15.8464C76.4773 14.599 77.1141 13.4441 77.9644 12.454C78.5448 11.7718 78.4837 11.1201 77.6487 11.8329Z" fill="#FF71A8"/>
<path d="M93.5127 21.1192C93.1563 19.0013 90.7024 16.8019 89.3583 15.2135C87.9021 13.3131 86.3382 11.4977 84.6745 9.77612H83.0453C86.3443 13.401 90.0405 17.3212 92.4333 21.5774C92.7388 22.2087 93.6247 21.7607 93.5127 21.1192Z" fill="#FF71A8"/>
<path d="M91.3439 24.6932C89.6745 21.828 87.7743 19.1037 85.6622 16.5474C84.1349 14.6025 82.6075 12.3828 80.8358 10.438L80.5812 10.55L79.9296 10.9369C81.3856 12.6781 82.7093 14.6127 84.0025 16.3233C86.3546 19.378 88.4419 22.4327 90.509 25.6707C90.7568 25.32 91.0363 24.9928 91.3439 24.6932Z" fill="#FF71A8"/>
<path d="M88.1874 27.8801L88.5946 27.6663C86.5582 24.6116 84.145 21.6383 81.8336 18.7466C80.3246 16.7698 78.7172 14.8701 77.0174 13.0547C76.9807 13.1303 76.9364 13.202 76.885 13.2685C76.7017 13.4823 76.5083 13.686 76.3148 13.8896C80.3368 18.38 83.5748 23.5526 87.4033 28.2466C87.6477 28.0939 87.9328 27.9717 88.1874 27.8801Z" fill="#FF71A8"/>
<path d="M83.9617 28.7252C81.2533 24.6787 78.3302 20.7801 75.2049 17.0461C75.2166 17.5631 75.1927 18.0802 75.1337 18.5938C77.7403 21.7911 80.011 25.2327 82.4038 28.603C82.9231 28.6336 83.4424 28.6845 83.9617 28.7252Z" fill="#FF71A8"/>
<path d="M102.443 11.8737C101.46 12.74 100.677 13.81 100.15 15.0092C99.6223 16.2084 99.3623 17.5082 99.388 18.8181C99.3494 21.5042 100.336 24.1041 102.147 26.0882C103.133 27.1693 104.369 27.9925 105.746 28.4859C107.124 28.9793 108.601 29.128 110.049 28.9189C111.459 28.7069 112.811 28.2082 114.021 27.4534C115.231 26.6986 116.274 25.7038 117.085 24.5303C118.409 22.6131 118.979 20.2742 118.683 17.9627C118.385 15.7404 117.361 13.6788 115.771 12.0978C114.136 10.5836 112.03 9.67667 109.806 9.52841C107.582 9.38014 105.375 9.99957 103.553 11.2832C103.125 11.5988 103.206 11.8941 103.553 11.7108C105.179 10.8457 106.995 10.3979 108.837 10.4075C110.78 10.3795 112.68 10.9795 114.254 12.1181C115.858 13.3545 117.008 15.0875 117.523 17.0463C118.043 18.9096 117.888 20.8969 117.085 22.6568C116.529 23.8154 115.743 24.8489 114.775 25.6943C113.807 26.5398 112.677 27.1796 111.454 27.5748C110.232 27.9708 108.933 28.072 107.664 27.8703C106.396 27.6685 105.192 27.1695 104.153 26.414C103.142 25.6053 102.302 24.602 101.685 23.4635C101.068 22.325 100.685 21.0744 100.559 19.7854C100.413 18.4878 100.536 17.1741 100.922 15.9266C101.307 14.679 101.946 13.5246 102.799 12.5356C103.349 11.8127 103.267 11.1508 102.443 11.8737Z" fill="#FF71A8"/>
<path d="M113.103 21.6181C113.532 21.1437 113.84 20.5731 114.001 19.9546C114.162 19.336 114.172 18.6877 114.03 18.0645C113.783 16.7838 113.054 15.6467 111.994 14.8877C111.406 14.4805 110.729 14.2215 110.02 14.1328C109.31 14.0442 108.59 14.1285 107.921 14.3785C107.281 14.6268 106.701 15.0059 106.217 15.4917C105.733 15.9774 105.356 16.559 105.11 17.199C104.713 18.2278 104.713 19.3675 105.11 20.3963C105.482 21.336 106.141 22.1343 106.994 22.6771C107.883 23.1676 108.907 23.3572 109.913 23.2177C110.918 23.0783 111.852 22.6171 112.574 21.9032C112.608 21.8674 112.626 21.8201 112.626 21.7709C112.626 21.7217 112.608 21.6744 112.574 21.6385C112.544 21.6184 112.508 21.6076 112.472 21.6076C112.436 21.6076 112.4 21.6184 112.37 21.6385C111.654 21.9831 110.888 22.21 110.1 22.3105C109.358 22.4138 108.602 22.3298 107.9 22.0662C107.159 21.7663 106.539 21.2257 106.142 20.5312C105.745 19.8368 105.593 19.0289 105.711 18.2376C105.829 17.7076 106.055 17.2078 106.376 16.7697C106.697 16.3316 107.105 15.9646 107.574 15.6921C108.033 15.4226 108.549 15.2656 109.08 15.2337C109.611 15.2019 110.142 15.2961 110.629 15.5088C111.639 16.0166 112.41 16.9005 112.776 17.9705C113.141 19.0406 113.073 20.2114 112.584 21.2312C112.421 21.5367 112.737 22.0051 113.103 21.6181Z" fill="#FF71A8"/>
</g>
</g>
</g>
<defs>
<clipPath id="clip0_159_9235">
<rect width="218" height="20.11" fill="white" transform="translate(0 8.90039)"/>
</clipPath>
<clipPath id="clip1_159_9235">
<rect width="218" height="20.11" fill="white" transform="translate(0 8.90039)"/>
</clipPath>
<clipPath id="clip2_159_9235">
<rect width="217.84" height="20.11" fill="white" transform="translate(0.0802002 8.90039)"/>
</clipPath>
</defs>
</svg>
